<svg xmlns="http://www.w3.org/2000/svg" version="1.1" xmlns:xlink="http://www.w3.org/1999/xlink" xmlns:svgjs="http://svgjs.dev/svgjs" width="2000" height="1252" viewBox="0 0 2000 1252"><g transform="matrix(1,0,0,1,-1.2121212121212466,-2.01935483870966)"><svg viewBox="0 0 396 248" data-background-color="#2c3e50" preserveAspectRatio="xMidYMid meet" height="1252" width="2000" xmlns="http://www.w3.org/2000/svg" xmlns:xlink="http://www.w3.org/1999/xlink"><g id="tight-bounds" transform="matrix(1,0,0,1,0.2400000000000091,0.4000000000000057)"><svg viewBox="0 0 395.52 247.2" height="247.2" width="395.52"><g><svg></svg></g><g><svg viewBox="0 0 395.52 247.2" height="247.2" width="395.52"><mask id="dc355e07-21bd-4927-b9b3-c481d1e4f74a"><rect width="395.52" height="247.2" fill="white"></rect><g transform="matrix(1,0,0,1,0,111.91764026931708)" id="clone"><svg viewBox="0 0 395.52 23.364719461365823" height="23.364719461365823" width="395.52"><g><svg viewBox="0 0 395.52 23.364719461365823" height="23.364719461365823" width="395.52"><g><svg viewBox="0 0 395.52 23.364719461365823" height="23.364719461365823" width="395.52"><g><svg viewBox="0 0 395.52 23.364719461365823" height="23.364719461365823" width="395.52"><g id="SvgjsG2461"><svg viewBox="0 0 395.52 23.364719461365823" height="23.364719461365823" width="395.52" id="SvgjsSvg2460"><g><svg viewBox="0 0 395.52 23.364719461365823" height="23.364719461365823" width="395.52"><g transform="matrix(1,0,0,1,0,0)"><svg width="395.52" viewBox="-15.5 -34.25 624.76 37.85" height="23.364719461365823" data-palette-color="#ffffff"><path d="M15.7-31.25L29-31.25Q35.45-31.25 38.18-28.98 40.9-26.7 40.9-21.6L40.9-21.6Q40.9-19 40.3-15.6L40.3-15.6Q38.8-7.2 35.18-3.6 31.55 0 23.5 0L23.5 0 10.2 0 15.7-31.25ZM27.7-23.25L27.7-23.25 23.75-23.25 21.1-8 25.05-8Q27-8 27.95-8.47 28.9-8.95 29.2-10.65L29.2-10.65 30.95-20.6Q31-20.9 31-21.4L31-21.4Q31-22.55 30.2-22.9 29.4-23.25 27.7-23.25ZM9.1-2.4L8.7-0.15-12.5-2.4 9.1-2.4ZM10.8-12.05L10.4-9.8-10.8-12.05 10.8-12.05ZM11.65-16.85L11.25-14.6-9.95-16.85 11.65-16.85ZM12.5-21.65L12.1-19.4-9.1-21.65 12.5-21.65ZM13.3-26.45L12.95-24.2-8.25-26.45 13.3-26.45ZM9.95-7.25L9.55-5-11.65-7.25 9.95-7.25ZM14.15-31.25L13.75-29-7.4-31.25 14.15-31.25ZM67.5-26.95L67.5-26.95Q72.9-26.95 75.2-24.88 77.5-22.8 77.5-18.4L77.5-18.4Q77.5-16.25 76.95-13.2L76.95-13.2Q75.7-6 72.55-2.7 69.4 0.6 62.65 0.6L62.65 0.6Q57.35 0.6 55.1-1.48 52.85-3.55 52.85-7.9L52.85-7.9Q52.85-10.15 53.4-13.2L53.4-13.2Q54.65-20.4 57.75-23.68 60.85-26.95 67.5-26.95ZM61.15-7L64.1-7Q65.55-7 66.27-7.35 67-7.7 67.25-8.9L67.25-8.9 69.15-19.35 66.1-19.35Q64.7-19.35 63.92-19 63.15-18.65 63-17.5L63-17.5 61.15-7ZM31.7-12.05L51.65-12.05Q51.45-10.5 51.4-9.95L51.4-9.95 31.7-12.05ZM32.6-16.85L52.6-16.85 52.15-14.75 32.6-16.85ZM31.9-7.25L51.35-7.25Q51.35-6.45 51.55-5.15L51.55-5.15 31.9-7.25ZM34.6-21.65L54.35-21.65Q53.75-20.35 53.5-19.65L53.5-19.65 34.6-21.65ZM36.25-2.4L52.4-2.4Q53-1.2 53.7-0.55L53.7-0.55 36.25-2.4ZM41.3-26.45L58.7-26.45Q57.5-25.75 56.65-24.8L56.65-24.8 41.3-26.45ZM94.8-26.45L107.5-26.45Q114.8-26.45 114.8-19.85L114.8-19.85Q114.8-16.85 113.59-13.63 112.4-10.4 109.55-8.8L109.55-8.8 112.4 0 103.05 0 101.15-7.7 99.95-7.7 98.59 0 90.2 0 94.8-26.45ZM105.34-16.05L105.65-17.8Q105.65-17.85 105.7-18.3L105.7-18.3Q105.7-19.15 103.05-19.15L103.05-19.15 101.95-19.15 101.15-14.55 102.75-14.55Q105.05-14.55 105.34-16.05L105.34-16.05ZM88.95-2.4L88.55-0.15 67.34-2.4 88.95-2.4ZM90.65-12.05L90.25-9.8 69.05-12.05 90.65-12.05ZM91.5-16.85L91.09-14.6 69.9-16.85 91.5-16.85ZM92.34-21.65L91.95-19.4 70.75-21.65 92.34-21.65ZM93.15-26.45L92.8-24.2 71.59-26.45 93.15-26.45ZM89.8-7.25L89.4-5 68.2-7.25 89.8-7.25ZM125.04-0.15L104.14-2.4 125.74-2.4 125.04-0.15ZM107.99-21.65L129.54-21.65Q129.24-20.85 128.89-19.4L128.89-19.4 107.99-21.65ZM128.29-15L128.29-15 128.29-14.6 107.09-16.85 128.39-16.85Q128.29-15.65 128.29-15ZM127.34-7.25L126.64-5.05 105.79-7.25 127.34-7.25ZM111.44-26.45L132.99-26.45Q131.64-25.45 130.94-24.35L130.94-24.35 111.44-26.45ZM109.04-12.05L128.74-12.05Q129.19-10.75 130.19-9.8L130.19-9.8 109.04-12.05ZM151.09-25.9L148.69-18.6Q145.29-19.4 142.89-19.4 140.49-19.4 139.34-19.25L139.34-19.25 139.09-17.8 141.59-17.5Q149.64-16.45 149.64-10.85L149.64-10.85Q149.64-10.2 149.34-8.43 149.04-6.65 148.34-5 147.64-3.35 146.57-2.33 145.49-1.3 144.47-0.68 143.44-0.05 141.84 0.2L141.84 0.2Q139.34 0.6 135.17 0.6 130.99 0.6 126.74-0.55L126.74-0.55 129.19-7.95Q133.09-6.85 136.02-6.85 138.94-6.85 140.14-7L140.14-7 140.39-8.6 137.24-8.95Q133.19-9.4 131.49-10.85 129.79-12.3 129.79-15L129.79-15Q129.79-16 130.04-17.5L130.04-17.5Q131.04-22.85 133.64-24.9 136.24-26.95 141.57-26.95 146.89-26.95 151.09-25.9L151.09-25.9ZM170.89 0L162.14 0 166.74-26.45 175.54-26.45 170.89 0ZM160.89-2.4L160.49-0.15 139.29-2.4 160.89-2.4ZM162.59-12.05L162.19-9.8 140.99-12.05 162.59-12.05ZM163.44-16.85L163.04-14.6 141.84-16.85 163.44-16.85ZM164.29-21.65L163.89-19.4 142.69-21.65 164.29-21.65ZM165.09-26.45L164.74-24.2 143.54-26.45 165.09-26.45ZM161.74-7.25L161.34-5 140.14-7.25 161.74-7.25ZM211.44 0L202.69 0 202.49-4.05 196.19-4.05 194.64 0 185.99 0 197.09-26.45 209.49-26.45 211.44 0ZM198.84-11.2L202.49-11.2 202.49-18.8 201.79-18.8 198.84-11.2ZM185.34-2.4L184.39-0.2 163.89-2.4 185.34-2.4ZM187.39-7.25L186.44-5.05 165.94-7.25 187.39-7.25ZM189.39-12.05L188.49-9.85 167.99-12.05 189.39-12.05ZM191.44-16.85L190.49-14.65 170.04-16.85 191.44-16.85ZM193.44-21.65L192.54-19.45 172.09-21.65 193.44-21.65ZM195.44-26.45L194.54-24.3 174.14-26.45 195.44-26.45ZM233.38-2.4L232.88-0.15 211.78-2.4 233.38-2.4ZM234.53-7.25L233.98-5 212.93-7.25 234.53-7.25ZM235.63-12.05L235.13-9.8 214.08-12.05 235.63-12.05ZM236.78-16.85L236.23-14.6 215.23-16.85 236.78-16.85ZM237.88-21.65L237.38-19.4 216.38-21.65 237.88-21.65ZM239.03-26.45L238.48-24.2 217.53-26.45 239.03-26.45ZM240.13-31.25L239.63-29 218.68-31.25 240.13-31.25ZM247.53-15.15L244.28 0 234.38 0 241.68-31.25 254.08-31.25 254.98-15.35 255.33-15.35 261.83-31.25 274.23-31.25 270.53 0 260.58 0 262.68-15.15 262.33-15.15 256.08 0 248.83 0 247.78-15.15 247.53-15.15ZM310.48 0L301.73 0 301.53-4.05 295.23-4.05 293.68 0 285.03 0 296.13-26.45 308.53-26.45 310.48 0ZM297.88-11.2L301.53-11.2 301.53-18.8 300.83-18.8 297.88-11.2ZM284.38-2.4L283.43-0.2 262.93-2.4 284.38-2.4ZM286.43-7.25L285.48-5.05 264.98-7.25 286.43-7.25ZM288.43-12.05L287.53-9.85 267.03-12.05 288.43-12.05ZM290.48-16.85L289.53-14.65 269.08-16.85 290.48-16.85ZM292.48-21.65L291.58-19.45 271.13-21.65 292.48-21.65ZM294.48-26.45L293.58-24.3 273.18-26.45 294.48-26.45ZM345.83 0L339.03 0 333.88-9.9 333.68-9.9 331.93 0 323.53 0 328.13-26.45 334.93-26.45 340.13-16.6 340.43-16.6 342.13-26.45 350.48-26.45 345.83 0ZM322.28-2.4L321.88-0.15 300.68-2.4 322.28-2.4ZM323.98-12.05L323.58-9.8 302.38-12.05 323.98-12.05ZM324.83-16.85L324.43-14.6 303.23-16.85 324.83-16.85ZM325.68-21.65L325.28-19.4 304.08-21.65 325.68-21.65ZM326.48-26.45L326.13-24.2 304.93-26.45 326.48-26.45ZM323.13-7.25L322.73-5 301.53-7.25 323.13-7.25ZM386.83 0L378.08 0 377.88-4.05 371.58-4.05 370.03 0 361.38 0 372.48-26.45 384.88-26.45 386.83 0ZM374.23-11.2L377.88-11.2 377.88-18.8 377.18-18.8 374.23-11.2ZM360.73-2.4L359.78-0.2 339.28-2.4 360.73-2.4ZM362.78-7.25L361.83-5.05 341.33-7.25 362.78-7.25ZM364.78-12.05L363.88-9.85 343.38-12.05 364.78-12.05ZM366.83-16.85L365.88-14.65 345.43-16.85 366.83-16.85ZM368.83-21.65L367.93-19.45 347.48-21.65 368.83-21.65ZM370.83-26.45L369.93-24.3 349.53-26.45 370.83-26.45ZM422.42-15.55L419.92-1.4Q414.82 0.6 409.52 0.6 404.22 0.6 401.97-1.48 399.72-3.55 399.72-7.9L399.72-7.9Q399.72-10.05 400.42-14.05 401.12-18.05 402.57-20.9L402.57-20.9Q405.72-26.95 415.32-26.95L415.32-26.95Q420.92-26.95 423.12-25.85L423.12-25.85 420.57-18.9Q417.42-19.6 414.9-19.6 412.37-19.6 411.32-19.25 410.27-18.9 410.07-17.9L410.07-17.9 407.97-6.4 410.27-6.4Q411.52-6.4 412.2-6.68 412.87-6.95 413.02-7.9L413.02-7.9 413.37-9.85 411.32-9.85 412.32-15.55 422.42-15.55ZM378.57-12.05L398.52-12.05Q398.32-10.5 398.27-9.95L398.27-9.95 378.57-12.05ZM379.47-16.85L399.47-16.85 399.02-14.75 379.47-16.85ZM378.77-7.25L398.22-7.25Q398.22-6.45 398.42-5.15L398.42-5.15 378.77-7.25ZM381.47-21.65L401.22-21.65Q400.62-20.35 400.37-19.65L400.37-19.65 381.47-21.65ZM383.12-2.4L399.27-2.4Q399.87-1.2 400.57-0.55L400.57-0.55 383.12-2.4ZM388.17-26.45L405.57-26.45Q404.37-25.75 403.52-24.8L403.52-24.8 388.17-26.45ZM453.27-15.55L452.42-10.75 444.97-10.75 444.37-7.35 453.62-7.35 452.32 0 434.67 0 439.27-26.45 456.87-26.45 454.52-18.95 446.37-18.95 445.77-15.55 453.27-15.55ZM433.42-2.4L433.02-0.15 411.82-2.4 433.42-2.4ZM435.12-12.05L434.72-9.8 413.52-12.05 435.12-12.05ZM435.97-16.85L435.57-14.6 414.37-16.85 435.97-16.85ZM436.82-21.65L436.42-19.4 415.22-21.65 436.82-21.65ZM437.62-26.45L437.27-24.2 416.07-26.45 437.62-26.45ZM434.27-7.25L433.87-5 412.67-7.25 434.27-7.25ZM490.52-10.75L486.02 0 479.42 0 478.67-10.75 478.42-10.75 476.02 0 467.47 0 473.52-26.45 484.37-26.45 485.12-14.05 485.32-14.05 490.37-26.45 501.22-26.45 498.02 0 489.42 0 490.77-10.75 490.52-10.75ZM466.32-2.4L465.82-0.15 444.62-2.4 466.32-2.4ZM467.47-7.25L466.92-5 445.77-7.25 467.47-7.25ZM468.57-12.05L468.07-9.8 446.92-12.05 468.57-12.05ZM469.62-16.85L469.07-14.6 448.07-16.85 469.62-16.85ZM470.72-21.65L470.22-19.4 449.22-21.65 470.72-21.65ZM471.87-26.45L471.32-24.2 450.37-26.45 471.87-26.45ZM531.12-15.55L530.27-10.75 522.82-10.75 522.22-7.35 531.47-7.35 530.17 0 512.52 0 517.12-26.45 534.72-26.45 532.37-18.95 524.22-18.95 523.62-15.55 531.12-15.55ZM511.27-2.4L510.87-0.15 489.67-2.4 511.27-2.4ZM512.97-12.05L512.57-9.8 491.37-12.05 512.97-12.05ZM513.82-16.85L513.42-14.6 492.22-16.85 513.82-16.85ZM514.67-21.65L514.27-19.4 493.07-21.65 514.67-21.65ZM515.47-26.45L515.12-24.2 493.92-26.45 515.47-26.45ZM512.12-7.25L511.72-5 490.52-7.25 512.12-7.25ZM567.61 0L560.81 0 555.66-9.9 555.46-9.9 553.71 0 545.31 0 549.91-26.45 556.71-26.45 561.91-16.6 562.21-16.6 563.91-26.45 572.26-26.45 567.61 0ZM544.06-2.4L543.66-0.15 522.46-2.4 544.06-2.4ZM545.76-12.05L545.36-9.8 524.16-12.05 545.76-12.05ZM546.61-16.85L546.21-14.6 525.01-16.85 546.61-16.85ZM547.46-21.65L547.06-19.4 525.86-21.65 547.46-21.65ZM548.26-26.45L547.91-24.2 526.71-26.45 548.26-26.45ZM544.91-7.25L544.51-5 523.31-7.25 544.91-7.25ZM606.26-26.45L604.91-18.95 599.51-18.95 596.21 0 587.41 0 590.71-18.95 585.16-18.95 586.51-26.45 606.26-26.45ZM586.31-2.4L585.91-0.15 564.71-2.4 586.31-2.4ZM588.01-12.05L587.61-9.8 566.41-12.05 588.01-12.05ZM588.86-16.85L588.46-14.6 567.26-16.85 588.86-16.85ZM584.06-21.65L583.66-19.4 562.46-21.65 584.06-21.65ZM584.86-26.45L584.51-24.2 563.31-26.45 584.86-26.45ZM587.16-7.25L586.76-5 565.56-7.25 587.16-7.25Z" opacity="1" transform="matrix(1,0,0,1,0,0)" fill="black" class="wordmark-text-0" id="SvgjsPath2459" stroke-width="5" stroke="black" stroke-linejoin="round"></path></svg></g></svg></g></svg></g></svg></g><g></g></svg></g></svg></g></svg></g></mask><g mask="url(#dc355e07-21bd-4927-b9b3-c481d1e4f74a)"><g><path d="M107.215 64.774h50.073c16.189 0 27.71 2.849 34.561 8.546 6.827 5.723 10.24 14.984 10.241 27.785v0c0 6.526-0.753 14.056-2.259 22.589v0c-3.765 21.083-10.19 36.143-19.277 45.179-9.111 9.036-23.769 13.554-43.973 13.553v0h-50.073zM152.393 94.893v0h-14.871l-9.977 57.414h14.871c4.894 0 8.534-0.59 10.918-1.769 2.384-1.205 3.953-3.941 4.707-8.208v0l6.588-37.46c0.126-0.753 0.188-1.757 0.188-3.012v0c0-2.886-1.004-4.769-3.012-5.647-2.008-0.878-5.145-1.318-9.412-1.318zM82.366 173.391l-1.506 8.471-79.815-8.471zM88.767 137.059l-1.506 8.471-79.816-8.471zM91.967 118.988l-1.506 8.471-79.816-8.471zM95.167 100.917l-1.506 8.471-79.815-8.471zM98.179 82.845l-1.318 8.471-79.815-8.471zM85.567 155.131l-1.506 8.471-79.816-8.471zM101.379 64.774l-1.506 8.471-79.627-8.471zM240.68 173.391l-1.883 8.471-79.439-8.471zM245.009 155.131l-2.07 8.471-79.251-8.471zM249.151 137.059l-1.883 8.471-79.251-8.471zM253.48 118.988l-2.07 8.471-79.063-8.471zM257.622 100.917l-1.883 8.471-79.062-8.471zM261.951 82.845l-2.07 8.471-78.875-8.471zM266.093 64.774l-1.883 8.471-78.874-8.471zM293.953 125.388l-12.236 57.038h-37.272l27.483-117.652h46.685l3.388 59.861h1.318l24.471-59.861h46.685l-13.93 117.652h-37.461l7.907-57.038h-1.318l-23.531 57.038h-27.295l-3.953-57.038z" fill="#6575a8" fill-rule="nonzero" stroke="none" stroke-width="1" stroke-linecap="butt" stroke-linejoin="miter" stroke-miterlimit="10" stroke-dasharray="" stroke-dashoffset="0" font-family="none" font-weight="none" font-size="none" text-anchor="none" style="mix-blend-mode: normal" data-fill-palette-color="tertiary"></path></g></g><g transform="matrix(1,0,0,1,0,111.91764026931708)"><svg viewBox="0 0 395.52 23.364719461365823" height="23.364719461365823" width="395.52"><g><svg viewBox="0 0 395.52 23.364719461365823" height="23.364719461365823" width="395.52"><g><svg viewBox="0 0 395.52 23.364719461365823" height="23.364719461365823" width="395.52"><g><svg viewBox="0 0 395.52 23.364719461365823" height="23.364719461365823" width="395.52"><g id="textblocktransform"><svg viewBox="0 0 395.52 23.364719461365823" height="23.364719461365823" width="395.52" id="textblock"><g><svg viewBox="0 0 395.52 23.364719461365823" height="23.364719461365823" width="395.52"><g transform="matrix(1,0,0,1,0,0)"><svg width="395.52" viewBox="-15.5 -34.25 624.76 37.85" height="23.364719461365823" data-palette-color="#ffffff"><path d="M15.7-31.25L29-31.25Q35.45-31.25 38.18-28.98 40.9-26.7 40.9-21.6L40.9-21.6Q40.9-19 40.3-15.6L40.3-15.6Q38.8-7.2 35.18-3.6 31.55 0 23.5 0L23.5 0 10.2 0 15.7-31.25ZM27.7-23.25L27.7-23.25 23.75-23.25 21.1-8 25.05-8Q27-8 27.95-8.47 28.9-8.95 29.2-10.65L29.2-10.65 30.95-20.6Q31-20.9 31-21.4L31-21.4Q31-22.55 30.2-22.9 29.4-23.25 27.7-23.25ZM9.1-2.4L8.7-0.15-12.5-2.4 9.1-2.4ZM10.8-12.05L10.4-9.8-10.8-12.05 10.8-12.05ZM11.65-16.85L11.25-14.6-9.95-16.85 11.65-16.85ZM12.5-21.65L12.1-19.4-9.1-21.65 12.5-21.65ZM13.3-26.45L12.95-24.2-8.25-26.45 13.3-26.45ZM9.95-7.25L9.55-5-11.65-7.25 9.95-7.25ZM14.15-31.25L13.75-29-7.4-31.25 14.15-31.25ZM67.5-26.95L67.5-26.95Q72.9-26.95 75.2-24.88 77.5-22.8 77.5-18.4L77.5-18.4Q77.5-16.25 76.95-13.2L76.95-13.2Q75.7-6 72.55-2.7 69.4 0.6 62.65 0.6L62.65 0.6Q57.35 0.6 55.1-1.48 52.85-3.55 52.85-7.9L52.85-7.9Q52.85-10.15 53.4-13.2L53.4-13.2Q54.65-20.4 57.75-23.68 60.85-26.95 67.5-26.95ZM61.15-7L64.1-7Q65.55-7 66.27-7.35 67-7.7 67.25-8.9L67.25-8.9 69.15-19.35 66.1-19.35Q64.7-19.35 63.92-19 63.15-18.65 63-17.5L63-17.5 61.15-7ZM31.7-12.05L51.65-12.05Q51.45-10.5 51.4-9.95L51.4-9.95 31.7-12.05ZM32.6-16.85L52.6-16.85 52.15-14.75 32.6-16.85ZM31.9-7.25L51.35-7.25Q51.35-6.45 51.55-5.15L51.55-5.15 31.9-7.25ZM34.6-21.65L54.35-21.65Q53.75-20.35 53.5-19.65L53.5-19.65 34.6-21.65ZM36.25-2.4L52.4-2.4Q53-1.2 53.7-0.55L53.7-0.55 36.25-2.4ZM41.3-26.45L58.7-26.45Q57.5-25.75 56.65-24.8L56.65-24.8 41.3-26.45ZM94.8-26.45L107.5-26.45Q114.8-26.45 114.8-19.85L114.8-19.85Q114.8-16.85 113.59-13.63 112.4-10.4 109.55-8.8L109.55-8.8 112.4 0 103.05 0 101.15-7.7 99.95-7.7 98.59 0 90.2 0 94.8-26.45ZM105.34-16.05L105.65-17.8Q105.65-17.85 105.7-18.3L105.7-18.3Q105.7-19.15 103.05-19.15L103.05-19.15 101.95-19.15 101.15-14.55 102.75-14.55Q105.05-14.55 105.34-16.05L105.34-16.05ZM88.95-2.4L88.55-0.15 67.34-2.4 88.95-2.4ZM90.65-12.05L90.25-9.8 69.05-12.05 90.65-12.05ZM91.5-16.85L91.09-14.6 69.9-16.85 91.5-16.85ZM92.34-21.65L91.95-19.4 70.75-21.65 92.34-21.65ZM93.15-26.45L92.8-24.2 71.59-26.45 93.15-26.45ZM89.8-7.25L89.4-5 68.2-7.25 89.8-7.25ZM125.04-0.15L104.14-2.4 125.74-2.4 125.04-0.15ZM107.99-21.65L129.54-21.65Q129.24-20.85 128.89-19.4L128.89-19.4 107.99-21.65ZM128.29-15L128.29-15 128.29-14.6 107.09-16.85 128.39-16.85Q128.29-15.65 128.29-15ZM127.34-7.25L126.64-5.05 105.79-7.25 127.34-7.25ZM111.44-26.45L132.99-26.45Q131.64-25.45 130.94-24.35L130.94-24.35 111.44-26.45ZM109.04-12.05L128.74-12.05Q129.19-10.75 130.19-9.8L130.19-9.8 109.04-12.05ZM151.09-25.9L148.69-18.6Q145.29-19.4 142.89-19.4 140.49-19.4 139.34-19.25L139.34-19.25 139.09-17.8 141.59-17.5Q149.64-16.45 149.64-10.85L149.64-10.85Q149.64-10.2 149.34-8.43 149.04-6.65 148.34-5 147.64-3.35 146.57-2.33 145.49-1.3 144.47-0.68 143.44-0.05 141.84 0.2L141.84 0.2Q139.34 0.6 135.17 0.6 130.99 0.6 126.74-0.55L126.74-0.55 129.19-7.95Q133.09-6.85 136.02-6.85 138.94-6.85 140.14-7L140.14-7 140.39-8.6 137.24-8.95Q133.19-9.4 131.49-10.85 129.79-12.3 129.79-15L129.79-15Q129.79-16 130.04-17.5L130.04-17.5Q131.04-22.85 133.64-24.9 136.24-26.95 141.57-26.95 146.89-26.95 151.09-25.9L151.09-25.9ZM170.89 0L162.14 0 166.74-26.45 175.54-26.45 170.89 0ZM160.89-2.4L160.49-0.15 139.29-2.4 160.89-2.4ZM162.59-12.05L162.19-9.8 140.99-12.05 162.59-12.05ZM163.44-16.85L163.04-14.6 141.84-16.85 163.44-16.85ZM164.29-21.65L163.89-19.4 142.69-21.65 164.29-21.65ZM165.09-26.45L164.74-24.2 143.54-26.45 165.09-26.45ZM161.74-7.25L161.34-5 140.14-7.25 161.74-7.25ZM211.44 0L202.69 0 202.49-4.05 196.19-4.05 194.64 0 185.99 0 197.09-26.45 209.49-26.45 211.44 0ZM198.84-11.2L202.49-11.2 202.49-18.8 201.79-18.8 198.84-11.2ZM185.34-2.4L184.39-0.2 163.89-2.4 185.34-2.4ZM187.39-7.25L186.44-5.05 165.94-7.25 187.39-7.25ZM189.39-12.05L188.49-9.85 167.99-12.05 189.39-12.05ZM191.44-16.85L190.49-14.65 170.04-16.85 191.44-16.85ZM193.44-21.65L192.54-19.45 172.09-21.65 193.44-21.65ZM195.44-26.45L194.54-24.3 174.14-26.45 195.44-26.45ZM233.38-2.4L232.88-0.15 211.78-2.4 233.38-2.4ZM234.53-7.25L233.98-5 212.93-7.25 234.53-7.25ZM235.63-12.05L235.13-9.8 214.08-12.05 235.63-12.05ZM236.78-16.85L236.23-14.6 215.23-16.85 236.78-16.85ZM237.88-21.65L237.38-19.4 216.38-21.65 237.88-21.65ZM239.03-26.45L238.48-24.2 217.53-26.45 239.03-26.45ZM240.13-31.25L239.63-29 218.68-31.25 240.13-31.25ZM247.53-15.15L244.28 0 234.38 0 241.68-31.25 254.08-31.25 254.98-15.35 255.33-15.35 261.83-31.25 274.23-31.25 270.53 0 260.58 0 262.68-15.15 262.33-15.15 256.08 0 248.83 0 247.78-15.15 247.53-15.15ZM310.48 0L301.73 0 301.53-4.05 295.23-4.05 293.68 0 285.03 0 296.13-26.45 308.53-26.45 310.48 0ZM297.88-11.2L301.53-11.2 301.53-18.8 300.83-18.8 297.88-11.2ZM284.38-2.4L283.43-0.2 262.93-2.4 284.38-2.4ZM286.43-7.25L285.48-5.05 264.98-7.25 286.43-7.25ZM288.43-12.05L287.53-9.85 267.03-12.05 288.43-12.05ZM290.48-16.85L289.53-14.65 269.08-16.85 290.48-16.85ZM292.48-21.65L291.58-19.45 271.13-21.65 292.48-21.65ZM294.48-26.45L293.58-24.3 273.18-26.45 294.48-26.45ZM345.83 0L339.03 0 333.88-9.9 333.68-9.9 331.93 0 323.53 0 328.13-26.45 334.93-26.45 340.13-16.6 340.43-16.6 342.13-26.45 350.48-26.45 345.83 0ZM322.28-2.4L321.88-0.15 300.68-2.4 322.28-2.4ZM323.98-12.05L323.58-9.8 302.38-12.05 323.98-12.05ZM324.83-16.85L324.43-14.6 303.23-16.85 324.83-16.85ZM325.68-21.65L325.28-19.4 304.08-21.65 325.68-21.65ZM326.48-26.45L326.13-24.2 304.93-26.45 326.48-26.45ZM323.13-7.25L322.73-5 301.53-7.25 323.13-7.25ZM386.83 0L378.08 0 377.88-4.05 371.58-4.05 370.03 0 361.38 0 372.48-26.45 384.88-26.45 386.83 0ZM374.23-11.2L377.88-11.2 377.88-18.8 377.18-18.8 374.23-11.2ZM360.73-2.4L359.78-0.2 339.28-2.4 360.73-2.4ZM362.78-7.25L361.83-5.05 341.33-7.25 362.78-7.25ZM364.78-12.05L363.88-9.85 343.38-12.05 364.78-12.05ZM366.83-16.85L365.88-14.65 345.43-16.85 366.83-16.85ZM368.83-21.65L367.93-19.45 347.48-21.65 368.83-21.65ZM370.83-26.45L369.93-24.3 349.53-26.45 370.83-26.45ZM422.42-15.55L419.92-1.4Q414.82 0.6 409.52 0.6 404.22 0.6 401.97-1.48 399.72-3.55 399.72-7.9L399.72-7.9Q399.72-10.05 400.42-14.05 401.12-18.05 402.57-20.9L402.57-20.9Q405.72-26.95 415.32-26.95L415.32-26.95Q420.92-26.95 423.12-25.85L423.12-25.85 420.57-18.9Q417.42-19.6 414.9-19.6 412.37-19.6 411.32-19.25 410.27-18.9 410.07-17.9L410.07-17.9 407.97-6.4 410.27-6.4Q411.52-6.4 412.2-6.68 412.87-6.95 413.02-7.9L413.02-7.9 413.37-9.85 411.32-9.85 412.32-15.55 422.42-15.55ZM378.57-12.05L398.52-12.05Q398.32-10.5 398.27-9.95L398.27-9.95 378.57-12.05ZM379.47-16.85L399.47-16.85 399.02-14.75 379.47-16.85ZM378.77-7.25L398.22-7.25Q398.22-6.45 398.42-5.15L398.42-5.15 378.77-7.25ZM381.47-21.65L401.22-21.65Q400.62-20.35 400.37-19.65L400.37-19.65 381.47-21.65ZM383.12-2.4L399.27-2.4Q399.87-1.2 400.57-0.55L400.57-0.55 383.12-2.4ZM388.17-26.45L405.57-26.45Q404.37-25.75 403.52-24.8L403.52-24.8 388.17-26.45ZM453.27-15.55L452.42-10.75 444.97-10.75 444.37-7.35 453.62-7.35 452.32 0 434.67 0 439.27-26.45 456.87-26.45 454.52-18.95 446.37-18.95 445.77-15.55 453.27-15.55ZM433.42-2.4L433.02-0.15 411.82-2.4 433.42-2.4ZM435.12-12.05L434.72-9.8 413.52-12.05 435.12-12.05ZM435.97-16.85L435.57-14.6 414.37-16.85 435.97-16.85ZM436.82-21.65L436.42-19.4 415.22-21.65 436.82-21.65ZM437.62-26.45L437.27-24.2 416.07-26.45 437.62-26.45ZM434.27-7.25L433.87-5 412.67-7.25 434.27-7.25ZM490.52-10.75L486.02 0 479.42 0 478.67-10.75 478.42-10.75 476.02 0 467.47 0 473.52-26.45 484.37-26.45 485.12-14.05 485.32-14.05 490.37-26.45 501.22-26.45 498.02 0 489.42 0 490.77-10.75 490.52-10.75ZM466.32-2.4L465.82-0.15 444.62-2.4 466.32-2.4ZM467.47-7.25L466.92-5 445.77-7.25 467.47-7.25ZM468.57-12.05L468.07-9.8 446.92-12.05 468.57-12.05ZM469.62-16.85L469.07-14.6 448.07-16.85 469.62-16.85ZM470.72-21.65L470.22-19.4 449.22-21.65 470.72-21.65ZM471.87-26.45L471.32-24.2 450.37-26.45 471.87-26.45ZM531.12-15.55L530.27-10.75 522.82-10.75 522.22-7.35 531.47-7.35 530.17 0 512.52 0 517.12-26.45 534.72-26.45 532.37-18.95 524.22-18.95 523.62-15.55 531.12-15.55ZM511.27-2.4L510.87-0.15 489.67-2.4 511.27-2.4ZM512.97-12.05L512.57-9.8 491.37-12.05 512.97-12.05ZM513.82-16.85L513.42-14.6 492.22-16.85 513.82-16.85ZM514.67-21.65L514.27-19.4 493.07-21.65 514.67-21.65ZM515.47-26.45L515.12-24.2 493.92-26.45 515.47-26.45ZM512.12-7.25L511.72-5 490.52-7.25 512.12-7.25ZM567.61 0L560.81 0 555.66-9.9 555.46-9.9 553.71 0 545.31 0 549.91-26.45 556.71-26.45 561.91-16.6 562.21-16.6 563.91-26.45 572.26-26.45 567.61 0ZM544.06-2.4L543.66-0.15 522.46-2.4 544.06-2.4ZM545.76-12.05L545.36-9.8 524.16-12.05 545.76-12.05ZM546.61-16.85L546.21-14.6 525.01-16.85 546.61-16.85ZM547.46-21.65L547.06-19.4 525.86-21.65 547.46-21.65ZM548.26-26.45L547.91-24.2 526.71-26.45 548.26-26.45ZM544.91-7.25L544.51-5 523.31-7.25 544.91-7.25ZM606.26-26.45L604.91-18.95 599.51-18.95 596.21 0 587.41 0 590.71-18.95 585.16-18.95 586.51-26.45 606.26-26.45ZM586.31-2.4L585.91-0.15 564.71-2.4 586.31-2.4ZM588.01-12.05L587.61-9.8 566.41-12.05 588.01-12.05ZM588.86-16.85L588.46-14.6 567.26-16.85 588.86-16.85ZM584.06-21.65L583.66-19.4 562.46-21.65 584.06-21.65ZM584.86-26.45L584.51-24.2 563.31-26.45 584.86-26.45ZM587.16-7.25L586.76-5 565.56-7.25 587.16-7.25Z" opacity="1" transform="matrix(1,0,0,1,0,0)" fill="#ffffff" class="wordmark-text-0" data-fill-palette-color="primary" id="text-0"></path></svg></g></svg></g></svg></g></svg></g><g></g></svg></g></svg></g></svg></g></svg></g><defs></defs></svg><rect width="395.52" height="247.2" fill="none" stroke="none" visibility="hidden"></rect></g></svg></g></svg>