<svg xmlns="http://www.w3.org/2000/svg" version="1.1" xmlns:xlink="http://www.w3.org/1999/xlink" xmlns:svgjs="http://svgjs.dev/svgjs" width="2000" height="419" viewBox="0 0 2000 419"><g transform="matrix(1,0,0,1,-1.2121212121213603,-1.341697390233037)"><svg viewBox="0 0 396 83" data-background-color="#2c3e50" preserveAspectRatio="xMidYMid meet" height="419" width="2000" xmlns="http://www.w3.org/2000/svg" xmlns:xlink="http://www.w3.org/1999/xlink"><g id="tight-bounds" transform="matrix(1,0,0,1,0.24000000000003752,0.2657777646523698)"><svg viewBox="0 0 395.5199999999999 82.46844447069525" height="82.46844447069525" width="395.5199999999999"><g><svg viewBox="0 0 677.0601270675832 141.17135793991417" height="82.46844447069525" width="395.5199999999999"><g><rect width="5.951112098999485" height="141.17135793991417" x="260.01018748429186" y="0" fill="#ffffff" opacity="1" stroke-width="0" stroke="transparent" fill-opacity="1" class="rect-yte-0" data-fill-palette-color="primary" rx="1%" id="yte-0" data-palette-color="#ffffff"></rect></g><g transform="matrix(1,0,0,1,281.54012706758317,0.3511725321888406)"><svg viewBox="0 0 395.52 140.4690128755365" height="140.4690128755365" width="395.52"><g id="textblocktransform"><svg viewBox="0 0 395.52 140.4690128755365" height="140.4690128755365" width="395.52" id="textblock"><g><svg viewBox="0 0 395.52 140.4690128755365" height="140.4690128755365" width="395.52"><g transform="matrix(1,0,0,1,0,0)"><svg width="395.52" viewBox="4.050000000000001 -35.6 279.75 96.45" height="140.4690128755365" data-palette-color="#ffffff"><svg></svg><svg></svg><g class="wordmark-text-0" data-fill-palette-color="primary" id="text-0"><path d="M13 0h-8.95v-34.85h9c5.053 0 8.95 1.413 11.69 4.24 2.74 2.82 4.11 7.073 4.11 12.76v0c0 3.633-0.607 6.787-1.82 9.46-1.22 2.673-3.01 4.74-5.37 6.2-2.353 1.46-5.24 2.19-8.66 2.19zM12.85-29.85v0h-2.35v24.35h2.35c1.833 0 3.36-0.347 4.58-1.04 1.213-0.693 2.183-1.617 2.91-2.77 0.727-1.16 1.243-2.47 1.55-3.93 0.307-1.46 0.46-2.947 0.46-4.46v0c0-2.1-0.29-4.077-0.87-5.93-0.587-1.847-1.57-3.347-2.95-4.5-1.387-1.147-3.28-1.72-5.68-1.72zM43.95 0.5v0c-3.667 0-6.5-1.15-8.5-3.45-2-2.3-3-5.483-3-9.55v0c0-4.1 1.033-7.293 3.1-9.58 2.067-2.28 4.933-3.42 8.6-3.42v0c3.687 0 6.49 1.18 8.41 3.54 1.927 2.353 2.89 5.507 2.89 9.46v0c0 3.947-0.997 7.1-2.99 9.46-1.987 2.36-4.823 3.54-8.51 3.54zM44.05-4.5v0c3.167 0 4.75-2.667 4.75-8v0c0-5.367-1.583-8.05-4.75-8.05v0c-1.567 0-2.783 0.62-3.65 1.86-0.867 1.247-1.3 3.31-1.3 6.19v0c0 2.867 0.433 4.917 1.3 6.15 0.867 1.233 2.083 1.85 3.65 1.85zM67.25 0h-6.25v-24.9h5.65l0.3 4.4c0.267-0.653 0.68-1.347 1.24-2.08 0.56-0.733 1.333-1.353 2.32-1.86 0.993-0.507 2.273-0.76 3.84-0.76v0c0.487 0 0.913 0.033 1.28 0.1 0.367 0.067 0.707 0.167 1.02 0.3v0l-1.4 6.55c-0.533-0.533-1.35-0.8-2.45-0.8v0c-1.28 0-2.33 0.263-3.15 0.79-0.813 0.52-1.417 1.107-1.81 1.76-0.393 0.647-0.59 1.147-0.59 1.5v0zM87.15 0.45v0c-1.813 0-3.3-0.17-4.46-0.51-1.16-0.347-2.06-0.74-2.7-1.18-0.64-0.44-1.087-0.81-1.34-1.11v0l1.85-4.75c0.733 0.6 1.67 1.19 2.81 1.77 1.147 0.587 2.477 0.88 3.99 0.88v0c1.187 0 2.017-0.243 2.49-0.73 0.473-0.48 0.71-1.003 0.71-1.57v0c0-0.787-0.54-1.497-1.62-2.13-1.087-0.633-2.347-1.257-3.78-1.87v0c-0.847-0.367-1.747-0.833-2.7-1.4-0.947-0.567-1.76-1.317-2.44-2.25-0.673-0.933-1.01-2.133-1.01-3.6v0c0-2.253 0.82-4.05 2.46-5.39 1.647-1.34 3.977-2.01 6.99-2.01v0c1.933 0 3.57 0.287 4.91 0.86 1.347 0.573 2.243 1.087 2.69 1.54v0l-1.7 4.5c-0.647-0.5-1.47-0.977-2.47-1.43-1-0.447-2.077-0.67-3.23-0.67v0c-1.267 0-2.15 0.167-2.65 0.5-0.5 0.333-0.75 0.867-0.75 1.6v0c0 0.813 0.447 1.483 1.34 2.01 0.893 0.527 1.963 1.04 3.21 1.54v0c2.087 0.813 3.767 1.817 5.04 3.01 1.273 1.193 1.91 2.707 1.91 4.54v0c0 1.367-0.317 2.647-0.95 3.84-0.633 1.187-1.65 2.153-3.05 2.9-1.4 0.74-3.25 1.11-5.55 1.11zM109-28.95h-7v-6.65h7zM108.75 0h-6.5v-24.9h6.5zM121.2 0.7v0c-1.533 0-2.803-0.343-3.81-1.03-1.007-0.68-1.757-1.587-2.25-2.72-0.493-1.133-0.74-2.383-0.74-3.75v0c0-0.767 0.197-1.61 0.59-2.53 0.393-0.913 1.09-1.787 2.09-2.62 1-0.833 2.407-1.517 4.22-2.05 1.82-0.533 4.153-0.8 7-0.8v0-1.15c0-1.233-0.297-2.26-0.89-3.08-0.587-0.813-1.773-1.22-3.56-1.22v0c-1.3 0-2.57 0.22-3.81 0.66-1.247 0.44-2.16 0.987-2.74 1.64v0l-2-4.8c1-0.687 2.337-1.317 4.01-1.89 1.68-0.573 3.543-0.86 5.59-0.86v0c2.467 0 4.383 0.373 5.75 1.12 1.367 0.753 2.327 1.817 2.88 3.19 0.547 1.373 0.82 2.987 0.82 4.84v0 16.35h-5.35l-0.45-3.55c-1.733 2.833-4.183 4.25-7.35 4.25zM123.85-4.1v0c0.747 0 1.55-0.303 2.41-0.91 0.86-0.613 1.54-1.393 2.04-2.34v0-3.55c-0.167-0.033-0.347-0.05-0.54-0.05-0.193 0-0.413 0-0.66 0v0c-0.92 0-1.883 0.103-2.89 0.31-1.007 0.207-1.86 0.57-2.56 1.09-0.7 0.513-1.05 1.23-1.05 2.15v0c0 1.2 0.267 2.05 0.8 2.55 0.533 0.5 1.35 0.75 2.45 0.75z" fill="#ffffff" fill-rule="nonzero" stroke="none" stroke-width="1" stroke-linecap="butt" stroke-linejoin="miter" stroke-miterlimit="10" stroke-dasharray="" stroke-dashoffset="0" font-family="none" font-weight="none" font-size="none" text-anchor="none" style="mix-blend-mode: normal" data-fill-palette-color="primary" opacity="1"></path><path transform="translate(0,49.65)" d="M10.4 0h-6.2v-35.45h0.5l14.1 16.63 14-16.63h0.55v35.45h-6.2v-14.95l0.23-5.9-1.78 2.7-6.85 8.05-6.85-8.05-1.77-2.7 0.27 5.9zM46.25 0.7v0c-1.533 0-2.803-0.343-3.81-1.03-1.007-0.68-1.757-1.587-2.25-2.72-0.493-1.133-0.74-2.383-0.74-3.75v0c0-0.767 0.197-1.61 0.59-2.53 0.393-0.913 1.09-1.787 2.09-2.62 1-0.833 2.407-1.517 4.22-2.05 1.82-0.533 4.153-0.8 7-0.8v0-1.15c0-1.233-0.297-2.26-0.89-3.08-0.587-0.813-1.773-1.22-3.56-1.22v0c-1.3 0-2.57 0.22-3.81 0.66-1.24 0.44-2.153 0.987-2.74 1.64v0l-2-4.8c1-0.687 2.337-1.317 4.01-1.89 1.68-0.573 3.543-0.86 5.59-0.86v0c2.467 0 4.383 0.373 5.75 1.12 1.367 0.753 2.327 1.817 2.88 3.19 0.547 1.373 0.82 2.987 0.82 4.84v0 16.35h-5.35l-0.45-3.55c-1.733 2.833-4.183 4.25-7.35 4.25zM48.9-4.1v0c0.753 0 1.557-0.303 2.41-0.91 0.86-0.613 1.54-1.393 2.04-2.34v0-3.55c-0.167-0.033-0.347-0.05-0.54-0.05-0.187 0-0.407 0-0.66 0v0c-0.913 0-1.877 0.103-2.89 0.31-1.007 0.207-1.86 0.57-2.56 1.09-0.7 0.513-1.05 1.23-1.05 2.15v0c0 1.2 0.267 2.05 0.8 2.55 0.533 0.5 1.35 0.75 2.45 0.75zM72.5 0h-6.4v-24.9h5.8l0.13 3.27c0.647-1 1.553-1.893 2.72-2.68 1.167-0.793 2.7-1.19 4.6-1.19v0c2.533 0 4.417 0.8 5.65 2.4 1.233 1.6 1.85 3.817 1.85 6.65v0 16.45h-6.4v-15.9c0-1.387-0.29-2.507-0.87-3.36-0.587-0.86-1.48-1.29-2.68-1.29v0c-1.167 0-2.19 0.43-3.07 1.29-0.887 0.853-1.33 1.973-1.33 3.36v0zM99.05 0.7v0c-1.533 0-2.803-0.343-3.81-1.03-1.007-0.68-1.757-1.587-2.25-2.72-0.493-1.133-0.74-2.383-0.74-3.75v0c0-0.767 0.197-1.61 0.59-2.53 0.393-0.913 1.09-1.787 2.09-2.62 1-0.833 2.407-1.517 4.22-2.05 1.82-0.533 4.153-0.8 7-0.8v0-1.15c0-1.233-0.297-2.26-0.89-3.08-0.587-0.813-1.773-1.22-3.56-1.22v0c-1.3 0-2.57 0.22-3.81 0.66-1.24 0.44-2.153 0.987-2.74 1.64v0l-2-4.8c1-0.687 2.337-1.317 4.01-1.89 1.68-0.573 3.543-0.86 5.59-0.86v0c2.467 0 4.383 0.373 5.75 1.12 1.367 0.753 2.327 1.817 2.88 3.19 0.547 1.373 0.82 2.987 0.82 4.84v0 16.35h-5.35l-0.45-3.55c-1.733 2.833-4.183 4.25-7.35 4.25zM101.7-4.1v0c0.753 0 1.557-0.303 2.41-0.91 0.86-0.613 1.54-1.393 2.04-2.34v0-3.55c-0.167-0.033-0.347-0.05-0.54-0.05-0.187 0-0.407 0-0.66 0v0c-0.913 0-1.877 0.103-2.89 0.31-1.007 0.207-1.86 0.57-2.56 1.09-0.7 0.513-1.05 1.23-1.05 2.15v0c0 1.2 0.267 2.05 0.8 2.55 0.533 0.5 1.35 0.75 2.45 0.75zM119.55 9l2.8-4.7c0.6 0.367 1.33 0.7 2.19 1 0.86 0.3 1.863 0.45 3.01 0.45v0c2.133 0 3.733-0.553 4.8-1.66 1.067-1.107 1.6-2.87 1.6-5.29v0-3.9c-0.233 0.847-0.6 1.687-1.1 2.52-0.5 0.833-1.187 1.523-2.06 2.07-0.873 0.54-1.987 0.81-3.34 0.81v0c-1.88 0-3.583-0.43-5.11-1.29-1.527-0.853-2.74-2.217-3.64-4.09-0.9-1.867-1.35-4.307-1.35-7.32v0c0-3.067 0.447-5.563 1.34-7.49 0.893-1.927 2.093-3.343 3.6-4.25 1.507-0.907 3.177-1.36 5.01-1.36v0c2.053 0 3.62 0.517 4.7 1.55 1.087 1.033 1.737 2.15 1.95 3.35v0l0.7-4.3h4.9v23.7c0 3.82-0.963 6.84-2.89 9.06-1.92 2.227-4.757 3.34-8.51 3.34v0c-2.013 0-3.763-0.253-5.25-0.76-1.48-0.507-2.597-0.987-3.35-1.44zM128.7-4.6v0c1.453 0 2.59-0.687 3.41-2.06 0.827-1.373 1.24-3.32 1.24-5.84v0c0-2.38-0.357-4.3-1.07-5.76-0.72-1.46-1.847-2.19-3.38-2.19v0c-0.847 0-1.66 0.253-2.44 0.76-0.773 0.507-1.41 1.343-1.91 2.51-0.5 1.167-0.75 2.743-0.75 4.73v0c0 2.7 0.463 4.683 1.39 5.95 0.927 1.267 2.097 1.9 3.51 1.9zM156.9 0.65v0c-2.8 0-5.057-0.587-6.77-1.76-1.72-1.18-2.97-2.74-3.75-4.68-0.787-1.94-1.18-4.06-1.18-6.36v0c0-2.42 0.447-4.64 1.34-6.66 0.893-2.027 2.2-3.65 3.92-4.87 1.727-1.213 3.84-1.82 6.34-1.82v0c3.733 0 6.343 1.08 7.83 3.24 1.48 2.153 2.22 5.207 2.22 9.16v0c0 0.347-0.007 0.787-0.02 1.32-0.02 0.533-0.047 0.993-0.08 1.38v0h-15c0.1 1.967 0.653 3.507 1.66 4.62 1.013 1.12 2.527 1.68 4.54 1.68v0c1.033 0 2.143-0.23 3.33-0.69 1.18-0.46 2.053-1.013 2.62-1.66v0l2 4.75c-0.667 0.447-1.72 0.95-3.16 1.51-1.44 0.56-3.387 0.84-5.84 0.84zM151.7-14.3v0h8.8c0-1.753-0.153-3.09-0.46-4.01-0.307-0.927-0.727-1.567-1.26-1.92-0.533-0.347-1.143-0.52-1.83-0.52v0c-1.7 0-2.973 0.63-3.82 1.89-0.853 1.253-1.33 2.773-1.43 4.56zM179.15 0h-6.4v-24.9h5.75l0.15 3.3c0.653-1 1.557-1.9 2.71-2.7 1.16-0.8 2.707-1.2 4.64-1.2v0c1.687 0 3.087 0.373 4.2 1.12 1.12 0.753 1.963 1.813 2.53 3.18v0c0.633-1.053 1.543-2.033 2.73-2.94 1.193-0.907 2.857-1.36 4.99-1.36v0c2.5 0 4.367 0.8 5.6 2.4 1.233 1.6 1.85 3.817 1.85 6.65v0 16.45h-6.35v-15.8c0-1.387-0.267-2.507-0.8-3.36-0.533-0.86-1.4-1.29-2.6-1.29v0c-1.167 0-2.223 0.43-3.17 1.29-0.953 0.853-1.43 1.973-1.43 3.36v0 15.8h-6.4v-15.8c0-1.387-0.303-2.523-0.91-3.41-0.607-0.893-1.503-1.34-2.69-1.34v0c-1.2 0-2.233 0.447-3.1 1.34-0.867 0.887-1.3 2.023-1.3 3.41v0zM225.2 0.65v0c-2.8 0-5.057-0.587-6.77-1.76-1.72-1.18-2.97-2.74-3.75-4.68-0.787-1.94-1.18-4.06-1.18-6.36v0c0-2.42 0.447-4.64 1.34-6.66 0.893-2.027 2.2-3.65 3.92-4.87 1.727-1.213 3.84-1.82 6.34-1.82v0c3.733 0 6.343 1.08 7.83 3.24 1.48 2.153 2.22 5.207 2.22 9.16v0c0 0.347-0.007 0.787-0.02 1.32-0.02 0.533-0.047 0.993-0.08 1.38v0h-15c0.1 1.967 0.653 3.507 1.66 4.62 1.007 1.12 2.52 1.68 4.54 1.68v0c1.033 0 2.143-0.23 3.33-0.69 1.18-0.46 2.053-1.013 2.62-1.66v0l2 4.75c-0.667 0.447-1.72 0.95-3.16 1.51-1.44 0.56-3.387 0.84-5.84 0.84zM220-14.3v0h8.8c0-1.753-0.153-3.09-0.46-4.01-0.307-0.927-0.727-1.567-1.26-1.92-0.533-0.347-1.143-0.52-1.83-0.52v0c-1.7 0-2.973 0.63-3.82 1.89-0.853 1.253-1.33 2.773-1.43 4.56zM247.45 0h-6.4v-24.9h5.8l0.13 3.27c0.647-1 1.553-1.893 2.72-2.68 1.167-0.793 2.7-1.19 4.6-1.19v0c2.533 0 4.417 0.8 5.65 2.4 1.233 1.6 1.85 3.817 1.85 6.65v0 16.45h-6.4v-15.9c0-1.387-0.29-2.507-0.87-3.36-0.587-0.86-1.48-1.29-2.68-1.29v0c-1.167 0-2.19 0.43-3.07 1.29-0.887 0.853-1.33 1.973-1.33 3.36v0zM277.2 0.75v0c-2.813 0-4.717-0.733-5.71-2.2-0.993-1.467-1.49-3.683-1.49-6.65v0-11.55h-3.25v-5.25h3.5l0.35-5.25 5.45-2.35v7.6h6.15v5.25h-6.15v11.4c0 1.447 0.203 2.45 0.61 3.01 0.413 0.56 0.977 0.84 1.69 0.84v0c0.733 0 1.51-0.193 2.33-0.58 0.813-0.38 1.453-0.77 1.92-1.17v0l1.2 5.05c-0.513 0.367-1.183 0.687-2.01 0.96-0.827 0.28-1.66 0.497-2.5 0.65-0.84 0.16-1.537 0.24-2.09 0.24z" fill="#ffffff" fill-rule="nonzero" stroke="none" stroke-width="1" stroke-linecap="butt" stroke-linejoin="miter" stroke-miterlimit="10" stroke-dasharray="" stroke-dashoffset="0" font-family="none" font-weight="none" font-size="none" text-anchor="none" style="mix-blend-mode: normal" data-fill-palette-color="primary" opacity="1"></path></g></svg></g></svg></g></svg></g></svg></g><g transform="matrix(1,0,0,1,0,4.786902342932578)"><svg viewBox="0 0 244.43136 131.59755325404902" height="131.59755325404902" width="244.43136"><g><svg xmlns="http://www.w3.org/2000/svg" xmlns:xlink="http://www.w3.org/1999/xlink" version="1.1" x="0" y="0" viewBox="6.142 22.23700007954643 88.504 47.64899992045356" enable-background="new 0 0 100 100" xml:space="preserve" height="131.59755325404902" width="244.43136" class="icon-icon-0" data-fill-palette-color="accent" id="icon-0"><polygon points="50.827,46.708 50.827,43.066 49.962,43.066 49.962,46.708 13.261,46.708 13.261,49.169 14.126,49.169   14.126,47.573 31.614,47.573 31.614,49.169 32.479,49.169 32.479,47.573 49.962,47.573 49.962,49.169 50.827,49.169 50.827,47.573   68.766,47.573 68.766,49.169 69.631,49.169 69.631,47.573 86.752,47.573 86.752,49.169 87.617,49.169 87.617,46.708 " fill="#f4de21" data-fill-palette-color="accent"></polygon><circle cx="50.71" cy="54.013" r="3.4" fill="#f4de21" data-fill-palette-color="accent"></circle><path d="M45.141 69.885L45.332 67.002 46.027 67.02 45.979 69.886H54.996L54.922 66.987H55.638L55.94 69.886H58.08L56.863 60.138A1.855 1.855 0 0 0 55.024 58.513L45.892 58.503A1.855 1.855 0 0 0 44.043 60.19L43.158 69.886z" fill="#f4de21" data-fill-palette-color="accent"></path><circle cx="32.047" cy="54.013" r="3.4" fill="#f4de21" data-fill-palette-color="accent"></circle><path d="M26.478 69.885L26.669 67.002 27.364 67.02 27.316 69.886H36.333L36.259 66.987H36.975L37.277 69.886H39.417L38.2 60.138A1.855 1.855 0 0 0 36.361 58.513L27.229 58.503A1.855 1.855 0 0 0 25.38 60.19L24.495 69.886z" fill="#f4de21" data-fill-palette-color="accent"></path><circle cx="69.198" cy="54.013" r="3.4" fill="#f4de21" data-fill-palette-color="accent"></circle><path d="M63.629 69.885L63.82 67.002 64.515 67.02 64.467 69.886H73.484L73.41 66.987H74.126L74.428 69.886H76.568L75.351 60.138A1.855 1.855 0 0 0 73.512 58.513L64.38 58.503A1.855 1.855 0 0 0 62.531 60.19L61.646 69.886z" fill="#f4de21" data-fill-palette-color="accent"></path><circle cx="13.694" cy="54.013" r="3.4" fill="#f4de21" data-fill-palette-color="accent"></circle><path d="M8.125 69.885L8.316 67.002 9.011 67.02 8.963 69.886H17.98L17.906 66.987H18.622L18.924 69.886H21.064L19.847 60.138A1.855 1.855 0 0 0 18.008 58.513L8.876 58.503A1.855 1.855 0 0 0 7.027 60.19L6.142 69.886z" fill="#f4de21" data-fill-palette-color="accent"></path><circle cx="87.277" cy="54.013" r="3.4" fill="#f4de21" data-fill-palette-color="accent"></circle><path d="M81.707 69.885L81.898 67.002 82.593 67.02 82.545 69.886H91.562L91.488 66.987H92.204L92.506 69.886H94.646L93.429 60.138A1.855 1.855 0 0 0 91.59 58.513L82.458 58.503A1.855 1.855 0 0 0 80.609 60.19L79.724 69.886z" fill="#f4de21" data-fill-palette-color="accent"></path><circle cx="50.393" cy="25.588" r="3.4" fill="#f4de21" data-fill-palette-color="accent"></circle><path d="M56.545 31.712A1.855 1.855 0 0 0 54.706 30.087L45.574 30.077A1.857 1.857 0 0 0 43.724 31.764L42.84 41.46H44.824L45.015 38.577 45.71 38.595 45.662 41.461H54.679L54.605 38.562H55.321L55.623 41.461H57.763zM50.369 40.85L49.015 38.893 49.86 32.017A0.31 0.31 0 0 1 49.697 31.746V30.996A0.31 0.31 0 0 1 50.007 30.687H50.757A0.31 0.31 0 0 1 51.066 30.996V31.746A0.31 0.31 0 0 1 50.876 32.032L51.775 38.894z" fill="#f4de21" data-fill-palette-color="accent"></path></svg></g></svg></g></svg></g><defs></defs></svg><rect width="395.5199999999999" height="82.46844447069525" fill="none" stroke="none" visibility="hidden"></rect></g></svg></g></svg>