<svg xmlns="http://www.w3.org/2000/svg" version="1.1" xmlns:xlink="http://www.w3.org/1999/xlink" xmlns:svgjs="http://svgjs.dev/svgjs" width="128" height="128" viewBox="0 0 128 128"><g transform="matrix(0.8046875,0,0,0.8046875,12.41184074821259,12.814873242367177)"><svg viewBox="0 0 98 98" data-background-color="#000000" preserveAspectRatio="xMidYMid meet" height="127" width="128" xmlns="http://www.w3.org/2000/svg" xmlns:xlink="http://www.w3.org/1999/xlink"><g id="tight-bounds" transform="matrix(1,0,0,1,0.08387967645792571,0.08387967645792571)"><svg viewBox="0 0 97.83224064708415 97.83224064708415" height="97.83224064708415" width="97.83224064708415"><rect width="97.83224064708415" height="97.83224064708415" fill="url(#2079676a-9bb3-4ecb-99ae-064ea52d821d)" mask="url(#31466e5e-ea74-440a-9531-006fc927d480)" data-fill-palette-color="tertiary"></rect><g><svg></svg></g><g><svg viewBox="0 0 97.83224064708415 97.83224064708415" height="97.83224064708415" width="97.83224064708415"><g><path d="M0 48.916c0-27.016 21.9-48.916 48.916-48.916 27.016 0 48.916 21.9 48.916 48.916 0 27.016-21.9 48.916-48.916 48.916-27.016 0-48.916-21.9-48.916-48.916zM48.916 93.345c24.538 0 44.429-19.892 44.429-44.429 0-24.538-19.892-44.429-44.429-44.429-24.538 0-44.429 19.892-44.429 44.429 0 24.538 19.892 44.429 44.429 44.429z" data-fill-palette-color="tertiary" fill="url(#2079676a-9bb3-4ecb-99ae-064ea52d821d)" stroke="transparent"></path><ellipse rx="46.95947551060039" ry="46.95947551060039" cx="48.916120323542074" cy="48.916120323542074" fill="url(#2079676a-9bb3-4ecb-99ae-064ea52d821d)" stroke="transparent" stroke-width="0" fill-opacity="1" data-fill-palette-color="tertiary"></ellipse></g><g transform="matrix(1,0,0,1,23.47539391502934,24.03960236059579)"><svg viewBox="0 0 50.88145281702547 49.75303592589257" height="49.75303592589257" width="50.88145281702547"><g><svg viewBox="0 0 50.88145281702547 49.75303592589257" height="49.75303592589257" width="50.88145281702547"><g><svg viewBox="0 0 50.88145281702547 49.75303592589257" height="49.75303592589257" width="50.88145281702547"><g id="textblocktransform"><svg viewBox="0 0 50.88145281702547 49.75303592589257" height="49.75303592589257" width="50.88145281702547" id="textblock"><g><svg viewBox="0 0 50.88145281702547 49.75303592589257" height="49.75303592589257" width="50.88145281702547"><g><svg viewBox="0 0 50.88145281702547 49.75303592589257" height="49.75303592589257" width="50.88145281702547"><g><svg xmlns="http://www.w3.org/2000/svg" xmlns:xlink="http://www.w3.org/1999/xlink" version="1.1" x="0" y="0" viewBox="4.819 5.821013837814858 90.363 88.35898616218515" enable-background="new 0 0 100 100" xml:space="preserve" height="49.75303592589257" width="50.88145281702547" class="icon-icon-0" data-fill-palette-color="quaternary" id="icon-0"><path d="M14.485 60.225V49.516C14.485 48.64 15.195 47.93 16.071 47.93H48.497V38.1A1.586 1.586 0 1 1 51.669 38.1V47.93H83.928C84.804 47.93 85.514 48.64 85.514 49.516V60.225A1.586 1.586 0 1 1 82.342 60.225V51.102H51.586V60.225A1.586 1.586 0 1 1 48.414 60.225V51.102H17.657V60.225A1.586 1.586 0 1 1 14.485 60.225M48.659 31.495L45.982 27.576 43.804 27.897 45.683 23.215C44.957 23.935 42.915 24.412 42.861 24.441S42.017 24.616 40.465 25.346 38.831 27.663 38.831 27.663V29.598A18.1 18.1 0 0 0 50.063 33.548zM54.485 23.216L56.364 27.898 54.186 27.577 51.509 31.496 50.106 33.55A18.1 18.1 0 0 0 61.338 29.6V27.665S61.256 26.078 59.704 25.348 57.363 24.472 57.308 24.443 55.211 23.936 54.485 23.216M47.129 21.533V23.352L50.063 33.549H50.103L53.26 23.352V21.497S56.76 21.604 58.421 19.908C58.421 19.908 56.004 19.223 56.439 14.824S55.897 6.562 52.362 6.889C52.362 6.889 50.829 5.044 47.779 6.204 46.731 6.603 43.921 7.609 44.064 13.705S41.898 19.836 41.898 19.836 43.088 21.569 47.129 21.533M46.057 88.206L43.879 88.527 45.758 83.845C45.032 84.565 42.99 85.042 42.936 85.071S42.092 85.246 40.54 85.976 38.906 88.293 38.906 88.293V90.228A18.1 18.1 0 0 0 50.138 94.178L48.735 92.124zM59.778 85.977C58.226 85.247 57.437 85.101 57.382 85.072S55.286 84.566 54.56 83.846L56.439 88.528 54.261 88.207 51.584 92.126 50.181 94.18A18.1 18.1 0 0 0 61.412 90.23V88.295C61.411 88.294 61.33 86.707 59.778 85.977M53.335 82.127S56.835 82.234 58.496 80.538C58.496 80.538 56.079 79.853 56.513 75.454S55.971 67.192 52.436 67.519C52.436 67.519 50.903 65.674 47.853 66.834 46.806 67.233 43.995 68.239 44.138 74.335S41.972 80.466 41.972 80.466 43.162 82.198 47.204 82.162V83.981L50.138 94.178H50.178L53.335 83.981zM79.827 88.206L77.649 88.527 79.528 83.845C78.802 84.565 76.76 85.042 76.706 85.071S75.862 85.246 74.31 85.976 72.676 88.293 72.676 88.293V90.228A18.1 18.1 0 0 0 83.908 94.178L82.505 92.124zM93.548 85.977C91.996 85.247 91.207 85.101 91.152 85.072S89.056 84.566 88.33 83.846L90.209 88.528 88.031 88.207 85.354 92.126 83.951 94.18A18.1 18.1 0 0 0 95.182 90.23V88.295C95.181 88.294 95.1 86.707 93.548 85.977M87.105 82.127S90.605 82.234 92.266 80.538C92.266 80.538 89.849 79.853 90.284 75.454S89.742 67.192 86.207 67.519C86.207 67.519 84.674 65.674 81.624 66.834 80.577 67.233 77.766 68.239 77.909 74.335S75.743 80.466 75.743 80.466 76.934 82.198 80.975 82.162V83.981L83.909 94.178H83.949L87.106 83.981zM11.97 87.995L9.792 88.316 11.671 83.634C10.945 84.354 8.903 84.831 8.849 84.86S8.005 85.035 6.453 85.765 4.819 88.082 4.819 88.082V90.017A18.1 18.1 0 0 0 16.051 93.967L14.648 91.913zM25.69 85.766C24.138 85.036 23.349 84.89 23.294 84.861S21.198 84.355 20.472 83.635L22.351 88.317 20.173 87.996 17.496 91.915 16.093 93.969A18.1 18.1 0 0 0 27.325 90.019V88.084C27.324 88.083 27.242 86.496 25.69 85.766M19.248 81.916S22.748 82.023 24.409 80.327C24.409 80.327 21.992 79.642 22.427 75.243S21.885 66.981 18.35 67.308C18.35 67.308 16.817 65.463 13.767 66.623 12.719 67.022 9.909 68.028 10.052 74.124S7.886 80.255 7.886 80.255 9.076 81.987 13.118 81.951V83.77L16.052 93.967H16.092L19.249 83.77z" fill="#000000" data-fill-palette-color="quaternary"></path></svg></g></svg></g></svg></g></svg></g></svg></g><g></g></svg></g></svg></g></svg></g><defs></defs><mask id="31466e5e-ea74-440a-9531-006fc927d480"><g id="SvgjsG4124"><svg viewBox="0 0 97.83224064708415 97.83224064708415" height="97.83224064708415" width="97.83224064708415"><g><svg></svg></g><g><svg viewBox="0 0 97.83224064708415 97.83224064708415" height="97.83224064708415" width="97.83224064708415"><g><path d="M0 48.916c0-27.016 21.9-48.916 48.916-48.916 27.016 0 48.916 21.9 48.916 48.916 0 27.016-21.9 48.916-48.916 48.916-27.016 0-48.916-21.9-48.916-48.916zM48.916 93.345c24.538 0 44.429-19.892 44.429-44.429 0-24.538-19.892-44.429-44.429-44.429-24.538 0-44.429 19.892-44.429 44.429 0 24.538 19.892 44.429 44.429 44.429z" fill="white" stroke="transparent"></path><ellipse rx="46.95947551060039" ry="46.95947551060039" cx="48.916120323542074" cy="48.916120323542074" fill="white" stroke="transparent" stroke-width="0" fill-opacity="1"></ellipse></g><g transform="matrix(1,0,0,1,23.47539391502934,24.03960236059579)"><svg viewBox="0 0 50.88145281702547 49.75303592589257" height="49.75303592589257" width="50.88145281702547"><g><svg viewBox="0 0 50.88145281702547 49.75303592589257" height="49.75303592589257" width="50.88145281702547"><g><svg viewBox="0 0 50.88145281702547 49.75303592589257" height="49.75303592589257" width="50.88145281702547"><g id="SvgjsG4123"><svg viewBox="0 0 50.88145281702547 49.75303592589257" height="49.75303592589257" width="50.88145281702547" id="SvgjsSvg4122"><g><svg viewBox="0 0 50.88145281702547 49.75303592589257" height="49.75303592589257" width="50.88145281702547"><g><svg viewBox="0 0 50.88145281702547 49.75303592589257" height="49.75303592589257" width="50.88145281702547"><g><svg xmlns="http://www.w3.org/2000/svg" xmlns:xlink="http://www.w3.org/1999/xlink" version="1.1" x="0" y="0" viewBox="4.819 5.821013837814858 90.363 88.35898616218515" enable-background="new 0 0 100 100" xml:space="preserve" height="49.75303592589257" width="50.88145281702547" class="icon-icon-0" data-fill-palette-color="quaternary" id="SvgjsSvg4121"><path d="M14.485 60.225V49.516C14.485 48.64 15.195 47.93 16.071 47.93H48.497V38.1A1.586 1.586 0 1 1 51.669 38.1V47.93H83.928C84.804 47.93 85.514 48.64 85.514 49.516V60.225A1.586 1.586 0 1 1 82.342 60.225V51.102H51.586V60.225A1.586 1.586 0 1 1 48.414 60.225V51.102H17.657V60.225A1.586 1.586 0 1 1 14.485 60.225M48.659 31.495L45.982 27.576 43.804 27.897 45.683 23.215C44.957 23.935 42.915 24.412 42.861 24.441S42.017 24.616 40.465 25.346 38.831 27.663 38.831 27.663V29.598A18.1 18.1 0 0 0 50.063 33.548zM54.485 23.216L56.364 27.898 54.186 27.577 51.509 31.496 50.106 33.55A18.1 18.1 0 0 0 61.338 29.6V27.665S61.256 26.078 59.704 25.348 57.363 24.472 57.308 24.443 55.211 23.936 54.485 23.216M47.129 21.533V23.352L50.063 33.549H50.103L53.26 23.352V21.497S56.76 21.604 58.421 19.908C58.421 19.908 56.004 19.223 56.439 14.824S55.897 6.562 52.362 6.889C52.362 6.889 50.829 5.044 47.779 6.204 46.731 6.603 43.921 7.609 44.064 13.705S41.898 19.836 41.898 19.836 43.088 21.569 47.129 21.533M46.057 88.206L43.879 88.527 45.758 83.845C45.032 84.565 42.99 85.042 42.936 85.071S42.092 85.246 40.54 85.976 38.906 88.293 38.906 88.293V90.228A18.1 18.1 0 0 0 50.138 94.178L48.735 92.124zM59.778 85.977C58.226 85.247 57.437 85.101 57.382 85.072S55.286 84.566 54.56 83.846L56.439 88.528 54.261 88.207 51.584 92.126 50.181 94.18A18.1 18.1 0 0 0 61.412 90.23V88.295C61.411 88.294 61.33 86.707 59.778 85.977M53.335 82.127S56.835 82.234 58.496 80.538C58.496 80.538 56.079 79.853 56.513 75.454S55.971 67.192 52.436 67.519C52.436 67.519 50.903 65.674 47.853 66.834 46.806 67.233 43.995 68.239 44.138 74.335S41.972 80.466 41.972 80.466 43.162 82.198 47.204 82.162V83.981L50.138 94.178H50.178L53.335 83.981zM79.827 88.206L77.649 88.527 79.528 83.845C78.802 84.565 76.76 85.042 76.706 85.071S75.862 85.246 74.31 85.976 72.676 88.293 72.676 88.293V90.228A18.1 18.1 0 0 0 83.908 94.178L82.505 92.124zM93.548 85.977C91.996 85.247 91.207 85.101 91.152 85.072S89.056 84.566 88.33 83.846L90.209 88.528 88.031 88.207 85.354 92.126 83.951 94.18A18.1 18.1 0 0 0 95.182 90.23V88.295C95.181 88.294 95.1 86.707 93.548 85.977M87.105 82.127S90.605 82.234 92.266 80.538C92.266 80.538 89.849 79.853 90.284 75.454S89.742 67.192 86.207 67.519C86.207 67.519 84.674 65.674 81.624 66.834 80.577 67.233 77.766 68.239 77.909 74.335S75.743 80.466 75.743 80.466 76.934 82.198 80.975 82.162V83.981L83.909 94.178H83.949L87.106 83.981zM11.97 87.995L9.792 88.316 11.671 83.634C10.945 84.354 8.903 84.831 8.849 84.86S8.005 85.035 6.453 85.765 4.819 88.082 4.819 88.082V90.017A18.1 18.1 0 0 0 16.051 93.967L14.648 91.913zM25.69 85.766C24.138 85.036 23.349 84.89 23.294 84.861S21.198 84.355 20.472 83.635L22.351 88.317 20.173 87.996 17.496 91.915 16.093 93.969A18.1 18.1 0 0 0 27.325 90.019V88.084C27.324 88.083 27.242 86.496 25.69 85.766M19.248 81.916S22.748 82.023 24.409 80.327C24.409 80.327 21.992 79.642 22.427 75.243S21.885 66.981 18.35 67.308C18.35 67.308 16.817 65.463 13.767 66.623 12.719 67.022 9.909 68.028 10.052 74.124S7.886 80.255 7.886 80.255 9.076 81.987 13.118 81.951V83.77L16.052 93.967H16.092L19.249 83.77z" fill="black"></path></svg></g></svg></g></svg></g></svg></g></svg></g><g></g></svg></g></svg></g></svg></g><defs><mask></mask></defs></svg><rect width="97.83224064708415" height="97.83224064708415" fill="black" stroke="none" visibility="hidden"></rect></g></mask><linearGradient x1="0.054" x2="0.941" y1="0.5" y2="0.5" id="2079676a-9bb3-4ecb-99ae-064ea52d821d"><stop stop-color="#9c7945" offset="0"></stop><stop stop-color="#faf3aa" offset="0.498"></stop><stop stop-color="#9c7945" offset="1"></stop></linearGradient></svg><rect width="97.83224064708415" height="97.83224064708415" fill="none" stroke="none" visibility="hidden"></rect></g></svg></g></svg>