<svg xmlns="http://www.w3.org/2000/svg" version="1.1" xmlns:xlink="http://www.w3.org/1999/xlink" xmlns:svgjs="http://svgjs.dev/svgjs" width="2000" height="707" viewBox="0 0 2000 707"><g transform="matrix(1,0,0,1,-1.2121212121212466,-2.4580400526141943)"><svg viewBox="0 0 396 140" data-background-color="#ffffff" preserveAspectRatio="xMidYMid meet" height="707" width="2000" xmlns="http://www.w3.org/2000/svg" xmlns:xlink="http://www.w3.org/1999/xlink"><g id="tight-bounds" transform="matrix(1,0,0,1,0.2400000000000091,0.486740604478058)"><svg viewBox="0 0 395.52 139.0263793062928" height="139.0263793062928" width="395.52"><g><svg viewBox="0 0 648.674163060534 228.01077123747427" height="139.0263793062928" width="395.52"><g transform="matrix(1,0,0,1,253.15416306053407,56.63710369316034)"><svg viewBox="0 0 395.52 114.73656385115359" height="114.73656385115359" width="395.52"><g id="textblocktransform"><svg viewBox="0 0 395.52 114.73656385115359" height="114.73656385115359" width="395.52" id="textblock"><g><svg viewBox="0 0 395.52 114.73656385115359" height="114.73656385115359" width="395.52"><g transform="matrix(1,0,0,1,0,0)"><svg width="395.52" viewBox="135.38 -31.05 288.30719543327046 82.39" height="114.73656385115359" data-palette-color="#b22222"><g transform="matrix(1,0,0,1,0,0)"><g><svg width="10.858835433270448" viewBox="3.16 -36.36 78.76 36.36" height="5.013276593178062" data-palette-color="#b22222" id="scriptelement" x="410.57941771663525" y="28.63336107841097"><path d="M3.16 0L3.16-36.36 12.64-36.36 22.66-11.93 23.08-11.93 33.1-36.36 42.58-36.36 42.58 0 35.12 0 35.12-23.67 34.82-23.67 25.41-0.18 20.33-0.18 10.92-23.76 10.62-23.76 10.62 0 3.16 0ZM64.29-28.05L55.16 0 46.93 0 59.48-36.36 69.39-36.36 81.92 0 73.68 0 64.57-28.05 64.29-28.05ZM54.65-8.29L54.65-14.29 74.11-14.29 74.11-8.29 54.65-8.29Z" opacity="1" transform="matrix(1,0,0,1,0,0)" fill="#b22222" class="undefined-123" data-fill-palette-color="primary" id="tk-123"></path></svg></g></g><path d="M408.33 31.14C408.33 26.899 411.768 23.462 416.009 23.462 420.249 23.462 423.687 26.899 423.687 31.14 423.687 35.381 420.249 38.818 416.009 38.818 411.768 38.818 408.33 35.381 408.33 31.14ZM416.009 38.418C420.029 38.418 423.287 35.16 423.287 31.14 423.287 27.12 420.029 23.862 416.009 23.862 411.989 23.862 408.73 27.12 408.73 31.14 408.73 35.16 411.989 38.418 416.009 38.418Z" fill="#b22222" id="scriptcircle" data-fill-palette-color="primary"></path><svg></svg><svg></svg><g class="wordmark-text-0" data-fill-palette-color="primary" id="text-0"><path transform="translate(201.64,0)" d="M15.38-29.3h-14.4v1.32h3.9v26.66h-3.9v1.32h14.55c4.52 0 8.247-1.367 11.18-4.1v0c2.867-2.7 4.3-6.183 4.3-10.45v0c0-5.44-2.053-9.493-6.16-12.16v0c-2.7-1.727-5.857-2.59-9.47-2.59zM11.72-27.98h3.81c3.413 0 5.69 1.677 6.83 5.03v0c0.653 2.053 0.98 4.773 0.98 8.16v0c0 6.767-1.35 10.947-4.05 12.54v0c-1.047 0.62-2.333 0.93-3.86 0.93v0h-3.71zM40.87-10.6v0c0-4.553 0.553-7.467 1.66-8.74v0c0.68-0.747 1.64-1.12 2.88-1.12v0c2.087 0 3.42 1.057 4 3.17v0c0.393 1.373 0.59 3.54 0.59 6.5v0c0 4.753-0.62 7.747-1.86 8.98v0c-0.713 0.687-1.64 1.03-2.78 1.03v0c-2.02 0-3.32-1.043-3.9-3.13v0c-0.393-1.4-0.59-3.63-0.59-6.69zM45.65-21.73v0c-4 0-7.073 1.367-9.22 4.1v0c-1.5 1.953-2.25 4.233-2.25 6.84v0c0 3.68 1.27 6.593 3.81 8.74v0c2.02 1.693 4.427 2.54 7.22 2.54v0c3.847 0 6.86-1.383 9.04-4.15v0c1.627-2.087 2.44-4.497 2.44-7.23v0c0-3.647-1.287-6.493-3.86-8.54v0c-1.987-1.533-4.38-2.3-7.18-2.3zM71.78-1.27v0h-3.62v-10.55c0.233-3.413 1.063-5.497 2.49-6.25v0c0.233-0.093 0.447-0.14 0.64-0.14v0c0.36 0 0.75 0.373 1.17 1.12v0c0.587 1.04 1.223 1.69 1.91 1.95v0c0.32 0.1 0.677 0.15 1.07 0.15v0c1.3 0 2.227-0.62 2.78-1.86v0c0.2-0.42 0.3-0.857 0.3-1.31v0c0-1.633-0.8-2.66-2.4-3.08v0c-0.387-0.1-0.793-0.15-1.22-0.15v0c-2.013 0-3.787 0.8-5.32 2.4v0c-0.687 0.78-1.207 1.623-1.56 2.53v0l-0.34-4.54h-8.55v1.27h2.83v15.92c0 1.433-0.57 2.247-1.71 2.44v0c-0.32 0.067-0.693 0.1-1.12 0.1v0 1.27h13.82c0-0.747-0.213-1.153-0.64-1.22v0c-0.16-0.033-0.337-0.05-0.53-0.05zM88.33-0.88v0c2.18 0 3.433-0.78 3.76-2.34v0c0.033-0.227 0.05-0.44 0.05-0.64v0c0-1.66-1.043-3.043-3.13-4.15v0c-0.453-0.26-1.183-0.6-2.19-1.02v0c-2.447-1.073-4.06-2.067-4.84-2.98v0c-0.847-0.98-1.27-2.137-1.27-3.47v0c0-2.767 1.513-4.637 4.54-5.61v0c1.273-0.427 2.69-0.64 4.25-0.64v0c2.54 0 4.527 0.457 5.96 1.37v0c0-0.98 0.293-1.517 0.88-1.61v0c0.127-0.033 0.257-0.05 0.39-0.05v0 6.1h-1.56c-0.133-2.96-1.747-4.457-4.84-4.49v0c-2.08 0-3.367 0.683-3.86 2.05v0c-0.093 0.327-0.14 0.653-0.14 0.98v0c0 1.4 0.977 2.587 2.93 3.56v0c0.387 0.227 1.037 0.537 1.95 0.93v0c2.54 1.14 4.233 2.18 5.08 3.12v0c0.973 1.107 1.46 2.427 1.46 3.96v0c0 2.833-1.463 4.737-4.39 5.71v0c-1.207 0.393-2.557 0.59-4.05 0.59v0c-2.867 0-5.277-0.507-7.23-1.52v0c0 0.847-0.21 1.337-0.63 1.47v0c-0.2 0.033-0.43 0.05-0.69 0.05v0-7.42h1.66c0.067 4 2.037 6.017 5.91 6.05zM111.28-1.27v0h-1.81v-19.73h-9.03v1.27h2.83v15.92c0 1.433-0.57 2.247-1.71 2.44v0c-0.327 0.067-0.7 0.1-1.12 0.1v0 1.27h12.01c0-0.747-0.21-1.153-0.63-1.22v0c-0.167-0.033-0.347-0.05-0.54-0.05zM109.91-27.39v0c0-1.433-0.633-2.493-1.9-3.18v0c-0.553-0.32-1.14-0.48-1.76-0.48v0c-1.4 0-2.457 0.633-3.17 1.9v0c-0.293 0.553-0.44 1.14-0.44 1.76v0c0 1.433 0.633 2.473 1.9 3.12v0c0.553 0.293 1.123 0.44 1.71 0.44v0c1.433 0 2.49-0.6 3.17-1.8v0c0.327-0.553 0.49-1.14 0.49-1.76zM132.37 0.49v0c2.38 0 3.863-0.863 4.45-2.59v0c0.193-0.653 0.34-1.483 0.44-2.49v0l-1.27-0.05c-0.2 2.247-0.77 3.387-1.71 3.42v0c-0.72-0.067-1.08-0.88-1.08-2.44v0-10.21c0-4.067-1.887-6.573-5.66-7.52v0c-0.98-0.227-2.037-0.34-3.17-0.34v0c-4.433 0-7.217 0.96-8.35 2.88v0c-0.293 0.487-0.44 1.007-0.44 1.56v0c0 1.273 0.6 2.073 1.8 2.4v0c0.293 0.093 0.603 0.14 0.93 0.14v0c1.4 0 2.343-0.683 2.83-2.05v0c0.067-0.193 0.167-0.517 0.3-0.97v0c0.353-1.307 0.807-2.12 1.36-2.44v0c0.36-0.167 0.767-0.25 1.22-0.25v0c1.533 0 2.463 0.927 2.79 2.78v0c0.127 0.687 0.19 1.503 0.19 2.45v0 3.17c-8.367 0.16-12.567 2.373-12.6 6.64v0c0 2.9 1.27 4.757 3.81 5.57v0c0.753 0.227 1.583 0.34 2.49 0.34v0c2.767 0 4.803-1.043 6.11-3.13v0c0.26-0.42 0.47-0.86 0.63-1.32v0c0.687 2.8 2.33 4.283 4.93 4.45zM123.24-1.61v0c-1.627-0.067-2.457-1.517-2.49-4.35v0c0-2.147 0.88-3.547 2.64-4.2v0c0.94-0.293 2.143-0.47 3.61-0.53v0 4.73c-0.62 2.28-1.613 3.68-2.98 4.2v0c-0.293 0.1-0.553 0.15-0.78 0.15z" fill="#b22222" fill-rule="nonzero" stroke="none" stroke-width="1" stroke-linecap="butt" stroke-linejoin="miter" stroke-miterlimit="10" stroke-dasharray="" stroke-dashoffset="0" font-family="none" font-weight="none" font-size="none" text-anchor="none" style="mix-blend-mode: normal" data-fill-palette-color="primary" opacity="1"></path><path transform="translate(134.89,41.82)" d="M38.72-27.98v-1.32h-10.5l-8.74 21-10.25-21h-8.74v1.32h3.9v26.66h-3.9v1.32h9.86c-0.193-0.813-0.633-1.253-1.32-1.32v0h-2.58v-18.41l10.4 20.22h0.87l10.5-25v23.19h-3.9v1.32h14.4c-0.193-0.813-0.633-1.253-1.32-1.32v0h-2.59v-26.66zM58.15 0.49v0c2.38 0 3.863-0.863 4.45-2.59v0c0.193-0.653 0.34-1.483 0.44-2.49v0l-1.27-0.05c-0.2 2.247-0.77 3.387-1.71 3.42v0c-0.72-0.067-1.08-0.88-1.08-2.44v0-10.21c0-4.067-1.887-6.573-5.66-7.52v0c-0.973-0.227-2.03-0.34-3.17-0.34v0c-4.427 0-7.21 0.96-8.35 2.88v0c-0.293 0.487-0.44 1.007-0.44 1.56v0c0 1.273 0.6 2.073 1.8 2.4v0c0.293 0.093 0.603 0.14 0.93 0.14v0c1.4 0 2.343-0.683 2.83-2.05v0c0.067-0.193 0.167-0.517 0.3-0.97v0c0.353-1.307 0.807-2.12 1.36-2.44v0c0.36-0.167 0.767-0.25 1.22-0.25v0c1.533 0 2.463 0.927 2.79 2.78v0c0.127 0.687 0.19 1.503 0.19 2.45v0 3.17c-8.367 0.16-12.563 2.373-12.59 6.64v0c0 2.9 1.267 4.757 3.8 5.57v0c0.753 0.227 1.583 0.34 2.49 0.34v0c2.767 0 4.803-1.043 6.11-3.13v0c0.26-0.42 0.47-0.86 0.63-1.32v0c0.687 2.8 2.33 4.283 4.93 4.45zM49.02-1.61v0c-1.627-0.067-2.457-1.517-2.49-4.35v0c0-2.147 0.88-3.547 2.64-4.2v0c0.947-0.293 2.15-0.47 3.61-0.53v0 4.73c-0.613 2.28-1.607 3.68-2.98 4.2v0c-0.287 0.1-0.547 0.15-0.78 0.15zM74.51-1.27v0h-1.22l0.05-12.5c0.227-2.573 1.17-4.267 2.83-5.08v0c0.46-0.227 0.933-0.34 1.42-0.34v0c1.853 0 2.943 1.09 3.27 3.27v0c0.067 0.427 0.1 0.867 0.1 1.32v0 10.79c0 1.367-0.36 2.163-1.08 2.39v0c-0.327 0.1-0.717 0.15-1.17 0.15v0 1.27h11.28c0-0.747-0.21-1.153-0.63-1.22v0c-0.2-0.033-0.397-0.05-0.59-0.05v0h-1.61v-12.5c0-4.033-1.433-6.557-4.3-7.57v0c-0.78-0.26-1.593-0.39-2.44-0.39v0c-2.373 0-4.39 0.943-6.05 2.83v0c-0.493 0.553-0.887 1.123-1.18 1.71v0l-0.24-3.81h-8.69v1.27h2.83v15.92c0 1.5-0.7 2.33-2.1 2.49v0c-0.227 0.033-0.47 0.05-0.73 0.05v0 1.27h11.42c0-0.747-0.21-1.153-0.63-1.22v0c-0.167-0.033-0.347-0.05-0.54-0.05zM109.67 0.49v0c2.373 0 3.853-0.863 4.44-2.59v0c0.193-0.653 0.34-1.483 0.44-2.49v0l-1.27-0.05c-0.193 2.247-0.763 3.387-1.71 3.42v0c-0.713-0.067-1.07-0.88-1.07-2.44v0-10.21c0-4.067-1.89-6.573-5.67-7.52v0c-0.973-0.227-2.03-0.34-3.17-0.34v0c-4.427 0-7.21 0.96-8.35 2.88v0c-0.293 0.487-0.44 1.007-0.44 1.56v0c0 1.273 0.603 2.073 1.81 2.4v0c0.293 0.093 0.603 0.14 0.93 0.14v0c1.4 0 2.343-0.683 2.83-2.05v0c0.067-0.193 0.163-0.517 0.29-0.97v0c0.36-1.307 0.817-2.12 1.37-2.44v0c0.353-0.167 0.76-0.25 1.22-0.25v0c1.527 0 2.453 0.927 2.78 2.78v0c0.133 0.687 0.2 1.503 0.2 2.45v0 3.17c-8.367 0.16-12.567 2.373-12.6 6.64v0c0 2.9 1.27 4.757 3.81 5.57v0c0.747 0.227 1.577 0.34 2.49 0.34v0c2.767 0 4.8-1.043 6.1-3.13v0c0.26-0.42 0.473-0.86 0.64-1.32v0c0.68 2.8 2.323 4.283 4.93 4.45zM100.54-1.61v0c-1.627-0.067-2.457-1.517-2.49-4.35v0c0-2.147 0.877-3.547 2.63-4.2v0c0.947-0.293 2.153-0.47 3.62-0.53v0 4.73c-0.62 2.28-1.613 3.68-2.98 4.2v0c-0.293 0.1-0.553 0.15-0.78 0.15zM123.1-13.48v0c0-3.22 0.357-5.253 1.07-6.1v0c0.52-0.587 1.283-0.88 2.29-0.88v0c1.633 0 2.66 0.75 3.08 2.25v0c0.227 0.907 0.34 2.437 0.34 4.59v0c0 3.287-0.39 5.37-1.17 6.25v0c-0.553 0.553-1.317 0.83-2.29 0.83v0c-1.6 0-2.593-0.75-2.98-2.25v0c-0.227-0.88-0.34-2.443-0.34-4.69zM126.66-21.73v0c-3.773 0-6.54 1.203-8.3 3.61v0c-0.98 1.34-1.47 2.84-1.47 4.5v0c0 2.34 1.14 4.39 3.42 6.15v0c0.427 0.327 0.867 0.62 1.32 0.88v0h-0.05c-1.92-0.033-3.253 0.813-4 2.54v0c-0.26 0.647-0.39 1.297-0.39 1.95v0c0.033 1.56 0.633 2.83 1.8 3.81v0c-0.847 1.007-1.27 2-1.27 2.98v0c0 1.753 1.157 3.07 3.47 3.95v0c1.567 0.587 3.457 0.88 5.67 0.88v0c5.333 0 8.783-1.253 10.35-3.76v0c0.487-0.78 0.73-1.593 0.73-2.44v0c0-3.287-1.79-5.157-5.37-5.61v0c-0.427-0.067-0.867-0.1-1.32-0.1v0l-10.11-0.2c-0.847-0.033-1.35-0.407-1.51-1.12v0c-0.033-0.1-0.05-0.197-0.05-0.29v0c0-0.753 0.407-1.177 1.22-1.27v0c0.133-0.033 0.263-0.05 0.39-0.05v0l5.23 0.05c3.58 0 6.28-1.223 8.1-3.67v0c1.04-1.427 1.56-3.02 1.56-4.78v0c-0.027-2.38-0.92-4.333-2.68-5.86v0c0.587-0.913 1.27-1.387 2.05-1.42v0c0.42 0 0.94 0.277 1.56 0.83v0c0.487 0.393 0.943 0.59 1.37 0.59v0c0.973 0 1.577-0.457 1.81-1.37v0c0.027-0.16 0.04-0.323 0.04-0.49v0c0-1.167-0.567-1.997-1.7-2.49v0c-0.527-0.227-1.097-0.34-1.71-0.34v0c-1.693 0-3.013 0.977-3.96 2.93v0c-0.16 0.36-0.307 0.72-0.44 1.08v0c-1.56-0.98-3.48-1.47-5.76-1.47zM126.86 8.2v0c-3.973 0-6.367-0.877-7.18-2.63v0c-0.167-0.36-0.25-0.72-0.25-1.08v0c0-0.68 0.247-1.363 0.74-2.05v0c0.647 0.26 1.33 0.39 2.05 0.39v0l9.86 0.1c1.887 0 2.993 0.293 3.32 0.88v0c0.133 0.227 0.2 0.503 0.2 0.83v0c0 1.527-1.517 2.583-4.55 3.17v0c-1.267 0.26-2.663 0.39-4.19 0.39zM151.9-20.46v0c2.087 0.067 3.147 1.84 3.18 5.32v0c0 1.533-0.457 2.48-1.37 2.84v0c-0.653 0.227-1.63 0.307-2.93 0.24v0l-3.12-0.15c0.227-5.4 1.64-8.15 4.24-8.25zM161.04-5.03v0l-1.18-0.39c-0.907 1.987-2.337 3.337-4.29 4.05v0c-0.787 0.293-1.587 0.44-2.4 0.44v0c-2.6 0-4.277-1.66-5.03-4.98v0c-0.287-1.367-0.447-2.993-0.48-4.88v0l4.49 0.15c5.24 0.16 8.283-0.67 9.13-2.49v0c0.193-0.46 0.29-0.967 0.29-1.52v0c0-2.767-1.417-4.783-4.25-6.05v0c-1.593-0.687-3.4-1.03-5.42-1.03v0c-3.673 0-6.537 1.253-8.59 3.76v0c-1.56 1.953-2.34 4.38-2.34 7.28v0c0 4.72 1.773 8.007 5.32 9.86v0c1.693 0.88 3.613 1.32 5.76 1.32v0c3.807 0 6.54-1.337 8.2-4.01v0c0.327-0.487 0.59-0.99 0.79-1.51zM173.63-1.27v0h-0.88l0.05-12.6c0.2-2.567 1.047-4.243 2.54-5.03v0c0.427-0.227 0.85-0.34 1.27-0.34v0c1.207 0 2.07 0.75 2.59 2.25v0c0.227 0.713 0.34 1.51 0.34 2.39v0 10.79c0 1.333-0.31 2.13-0.93 2.39v0c-0.293 0.1-0.7 0.15-1.22 0.15v0 1.27h10.35c0-0.747-0.21-1.153-0.63-1.22v0c-0.193-0.033-0.39-0.05-0.59-0.05v0h-0.83v-12.5-0.34c0.233-2.7 1.113-4.377 2.64-5.03v0c0.327-0.133 0.653-0.2 0.98-0.2v0c1.4 0 2.36 0.83 2.88 2.49v0c0.193 0.687 0.29 1.437 0.29 2.25v0 10.79c0 1.333-0.31 2.13-0.93 2.39v0c-0.293 0.1-0.7 0.15-1.22 0.15v0 1.27h11.13c0-0.747-0.21-1.153-0.63-1.22v0c-0.193-0.033-0.39-0.05-0.59-0.05v0h-1.61v-12.74c0-3.193-1.057-5.457-3.17-6.79v0c-0.98-0.62-2.037-0.93-3.17-0.93v0c-3.16 0.033-5.52 1.547-7.08 4.54v0c-0.787-2.307-2.173-3.753-4.16-4.34v0c-0.52-0.133-1.04-0.2-1.56-0.2v0c-3.127 0.033-5.403 1.467-6.83 4.3v0l-0.25-3.57h-8.69v1.27h2.83v15.92c0 1.5-0.7 2.33-2.1 2.49v0c-0.227 0.033-0.47 0.05-0.73 0.05v0 1.27h11.08c0-0.747-0.21-1.153-0.63-1.22v0c-0.16-0.033-0.34-0.05-0.54-0.05zM214.6-20.46v0c2.08 0.067 3.137 1.84 3.17 5.32v0c0 1.533-0.453 2.48-1.36 2.84v0c-0.653 0.227-1.63 0.307-2.93 0.24v0l-3.13-0.15c0.227-5.4 1.643-8.15 4.25-8.25zM223.73-5.03v0l-1.17-0.39c-0.913 1.987-2.347 3.337-4.3 4.05v0c-0.78 0.293-1.577 0.44-2.39 0.44v0c-2.607 0-4.283-1.66-5.03-4.98v0c-0.293-1.367-0.457-2.993-0.49-4.88v0l4.49 0.15c5.247 0.16 8.29-0.67 9.13-2.49v0c0.2-0.46 0.3-0.967 0.3-1.52v0c0-2.767-1.417-4.783-4.25-6.05v0c-1.593-0.687-3.4-1.03-5.42-1.03v0c-3.68 0-6.543 1.253-8.59 3.76v0c-1.567 1.953-2.35 4.38-2.35 7.28v0c0 4.72 1.773 8.007 5.32 9.86v0c1.693 0.88 3.617 1.32 5.77 1.32v0c3.807 0 6.54-1.337 8.2-4.01v0c0.327-0.487 0.587-0.99 0.78-1.51zM236.67-1.27v0h-1.22l0.05-12.5c0.227-2.573 1.17-4.267 2.83-5.08v0c0.453-0.227 0.927-0.34 1.42-0.34v0c1.853 0 2.943 1.09 3.27 3.27v0c0.067 0.427 0.1 0.867 0.1 1.32v0 10.79c0 1.367-0.36 2.163-1.08 2.39v0c-0.327 0.1-0.717 0.15-1.17 0.15v0 1.27h11.28c0-0.747-0.213-1.153-0.64-1.22v0c-0.193-0.033-0.387-0.05-0.58-0.05v0h-1.61v-12.5c0-4.033-1.433-6.557-4.3-7.57v0c-0.78-0.26-1.593-0.39-2.44-0.39v0c-2.38 0-4.4 0.943-6.06 2.83v0c-0.487 0.553-0.877 1.123-1.17 1.71v0l-0.24-3.81h-8.69v1.27h2.83v15.92c0 1.5-0.7 2.33-2.1 2.49v0c-0.227 0.033-0.47 0.05-0.73 0.05v0 1.27h11.42c0-0.747-0.21-1.153-0.63-1.22v0c-0.167-0.033-0.347-0.05-0.54-0.05zM253.61-20.75v1.27h3.37v12.2c0 4.72 1.953 7.31 5.86 7.77v0c0.393 0.033 0.783 0.05 1.17 0.05v0c2.507 0 4.233-0.813 5.18-2.44v0c0.453-0.82 0.81-1.897 1.07-3.23v0l-1.31-0.19c-0.653 2.633-1.617 4.08-2.89 4.34v0c-0.193 0.033-0.387 0.05-0.58 0.05v0c-1.207 0-1.94-0.847-2.2-2.54v0c-0.067-0.387-0.1-0.793-0.1-1.22v0-14.79h6.45v-1.27h-6.45v-5.67l-6.2 1.03v4.64z" fill="#b22222" fill-rule="nonzero" stroke="none" stroke-width="1" stroke-linecap="butt" stroke-linejoin="miter" stroke-miterlimit="10" stroke-dasharray="" stroke-dashoffset="0" font-family="none" font-weight="none" font-size="none" text-anchor="none" style="mix-blend-mode: normal" data-fill-palette-color="primary" opacity="1"></path></g></svg></g></svg></g></svg></g></svg></g><g><svg viewBox="0 0 228.01077123747427 228.01077123747427" height="228.01077123747427" width="228.01077123747427"><g><svg></svg></g><g id="icon-0"><svg viewBox="0 0 228.01077123747427 228.01077123747427" height="228.01077123747427" width="228.01077123747427"><g><path d="M0 114.005c0-62.963 51.042-114.005 114.005-114.005 62.963 0 114.005 51.042 114.006 114.005 0 62.963-51.042 114.005-114.006 114.006-62.963 0-114.005-51.042-114.005-114.006zM114.005 223.208c60.311 0 109.203-48.892 109.203-109.203 0-60.311-48.892-109.203-109.203-109.203-60.311 0-109.203 48.892-109.203 109.203 0 60.311 48.892 109.203 109.203 109.203z" data-fill-palette-color="accent" fill="#193a62" stroke="transparent"></path><ellipse rx="112.86533176254976" ry="112.86533176254976" cx="114.00538561873714" cy="114.00538561873714" fill="#193a62" stroke="transparent" stroke-width="0" fill-opacity="1" data-fill-palette-color="accent"></ellipse></g><g transform="matrix(1,0,0,1,47.40725356973246,49.04105468359798)"><svg viewBox="0 0 133.19626409800935 129.92866187027832" height="129.92866187027832" width="133.19626409800935"><g><svg xmlns="http://www.w3.org/2000/svg" xmlns:xlink="http://www.w3.org/1999/xlink" version="1.1" x="0" y="0" viewBox="4.819 5.927831002778102 90.364 88.1471689972219" enable-background="new 0 0 100 100" xml:space="preserve" height="129.92866187027832" width="133.19626409800935" class="icon-dxe-0" data-fill-palette-color="quaternary" id="dxe-0"><path d="M43.669 16.181C43.099 14.167 43.704 13.87 44.217 13.918A5.1 5.1 0 0 1 44.085 10.857C44.35 9.723 44.963 8.815 45.65 8.113A7.5 7.5 0 0 1 47.098 6.917 5.6 5.6 0 0 1 48.504 6.196H48.505C48.905 6.061 49.332 5.973 49.784 5.952 51.179 5.831 52.236 6.181 52.995 6.63 54.128 7.255 54.558 8.083 54.558 8.083S57.409 8.283 56.161 14.261C56.545 14.394 56.815 14.92 56.371 16.492 55.824 18.425 55.327 18.531 55.027 18.328 54.657 20.41 53.537 23.093 49.925 23.234 46.256 22.953 45.094 20.206 44.767 18.09 44.473 18.065 44.086 17.652 43.669 16.181M62.395 28.561C62.324 27.201 61.864 25.474 60.062 25.016 56.972 24.23 54.462 22.463 54.462 22.463L52.503 28.657 52.134 29.823 52.128 29.807 51.806 30.795 50.774 27.865C53.386 24.221 50.082 24.363 50.082 24.363S46.779 24.221 49.39 27.865L48.348 30.818 48.029 29.82 45.703 22.463S43.193 24.23 40.103 25.016C38.301 25.474 37.841 27.201 37.77 28.561 40.923 31.708 45.275 33.654 50.082 33.654S59.242 31.708 62.395 28.561M16.071 61.916C16.947 61.916 17.657 61.206 17.657 60.33V51.207H48.414V60.33A1.586 1.586 0 1 0 51.586 60.33V51.207H82.343V60.33A1.586 1.586 0 1 0 85.515 60.33V49.621C85.515 48.745 84.805 48.035 83.929 48.035H51.67V38.205A1.586 1.586 0 1 0 48.498 38.205V48.035H16.071C15.195 48.035 14.485 48.745 14.485 49.621V60.33C14.485 61.206 15.195 61.916 16.071 61.916M43.585 76.6C44.001 78.072 44.389 78.485 44.682 78.508 45.009 80.623 46.171 83.37 49.84 83.652 53.452 83.511 54.572 80.828 54.942 78.746 55.241 78.95 55.739 78.843 56.286 76.91 56.731 75.339 56.46 74.812 56.076 74.679 57.324 68.702 54.473 68.501 54.473 68.501S54.043 67.673 52.91 67.048C52.151 66.598 51.094 66.249 49.699 66.37A4.6 4.6 0 0 0 48.42 66.614H48.419A5.6 5.6 0 0 0 47.013 67.335 7.6 7.6 0 0 0 45.565 68.531C44.878 69.233 44.265 70.141 44 71.275A5.13 5.13 0 0 0 44.132 74.336C43.621 74.288 43.016 74.586 43.585 76.6M59.979 85.435C56.89 84.649 54.379 82.882 54.379 82.882L52.42 89.076 52.051 90.242 52.045 90.226 51.723 91.214 50.691 88.284C53.303 84.642 50 84.783 50 84.783S46.697 84.641 49.308 88.285L48.266 91.238 47.947 90.24 45.621 82.883S43.111 84.65 40.021 85.436C38.219 85.894 37.759 87.621 37.688 88.981A17.37 17.37 0 0 0 50 94.074C54.807 94.074 59.159 92.128 62.312 88.981 62.241 87.62 61.781 85.893 59.979 85.435M79.827 88.101L77.649 88.422 79.528 83.74C78.802 84.46 76.76 84.937 76.706 84.966S75.862 85.141 74.31 85.871 72.676 88.187 72.676 88.187V90.122A18.1 18.1 0 0 0 83.908 94.072L82.505 92.018zM93.548 85.872C91.996 85.142 91.207 84.996 91.152 84.967S89.056 84.461 88.33 83.741L90.209 88.423 88.031 88.102 85.354 92.021 83.951 94.075A18.1 18.1 0 0 0 95.183 90.125V88.19C95.181 88.188 95.1 86.602 93.548 85.872M87.105 82.022S90.605 82.129 92.266 80.433C92.266 80.433 89.849 79.748 90.284 75.349S89.742 67.087 86.207 67.414C86.207 67.414 84.674 65.569 81.624 66.729 80.576 67.128 77.766 68.134 77.909 74.23S75.743 80.361 75.743 80.361 76.933 82.093 80.975 82.057V83.876L83.909 94.073H83.949L87.106 83.876zM11.97 88.101L9.792 88.422 11.671 83.74C10.945 84.46 8.903 84.937 8.849 84.966S8.005 85.141 6.453 85.871 4.819 88.187 4.819 88.187V90.122A18.1 18.1 0 0 0 16.051 94.072L14.648 92.018zM25.69 85.872C24.138 85.142 23.348 84.996 23.294 84.967 23.239 84.938 21.198 84.461 20.472 83.741L22.351 88.423 20.173 88.102 17.496 92.021 16.093 94.075A18.1 18.1 0 0 0 27.324 90.125V88.19C27.324 88.188 27.242 86.602 25.69 85.872M19.248 82.022S22.748 82.129 24.409 80.433C24.409 80.433 21.992 79.748 22.427 75.349S21.885 67.087 18.35 67.414C18.35 67.414 16.817 65.569 13.767 66.729 12.72 67.128 9.909 68.134 10.052 74.23S7.886 80.361 7.886 80.361 9.076 82.093 13.118 82.057V83.876L16.052 94.073H16.092L19.249 83.876z" fill="#ffffff" data-fill-palette-color="quaternary"></path></svg></g></svg></g></svg></g></svg></g></svg></g><defs></defs></svg><rect width="395.52" height="139.0263793062928" fill="none" stroke="none" visibility="hidden"></rect></g></svg></g></svg>